<svg width="77" height="30" viewBox="0 0 77 30" fill="none" xmlns="http://www.w3.org/2000/svg">
<mask id="mask0_3_6" style="mask-type:alpha" maskUnits="userSpaceOnUse" x="1" y="2" width="75" height="26">
<path opacity="0.8" d="M1.15666 12H-3.84334C-3.84334 14.7614 -1.60477 17 1.15666 17L1.15666 12ZM1.15666 3.6V-1.4C-1.60477 -1.4 -3.84334 0.838576 -3.84334 3.6L1.15666 3.6ZM7.76866 4.116L5.59349 8.61807C5.60723 8.62471 5.62099 8.63128 5.63478 8.63779L7.76866 4.116ZM9.43666 5.556L5.22726 8.25433L5.22726 8.25433L9.43666 5.556ZM9.43666 10.044L13.6461 12.7423C13.6512 12.7342 13.6564 12.7261 13.6616 12.718L9.43666 10.044ZM7.76866 11.496L9.90253 16.0178C9.91633 16.0113 9.93009 16.0047 9.94382 15.9981L7.76866 11.496ZM3.98866 9.792H-1.01134C-1.01134 12.5534 1.22723 14.792 3.98866 14.792L3.98866 9.792ZM6.22066 9.564L3.98459 5.09186C3.96856 5.09988 3.95257 5.10798 3.93663 5.11616L6.22066 9.564ZM6.92866 8.892L11.2771 11.36C11.2864 11.3435 11.2957 11.327 11.3049 11.3104L6.92866 8.892ZM6.92866 6.708L11.2771 4.23998L11.2771 4.23997L6.92866 6.708ZM6.22066 6.036L3.93663 10.4838C3.95257 10.492 3.96856 10.5001 3.98459 10.5081L6.22066 6.036ZM3.98866 5.808V0.808C1.22723 0.808 -1.01134 3.04658 -1.01134 5.808L3.98866 5.808ZM6.15666 12V3.6H-3.84334V12H6.15666ZM1.15666 8.6H5.29666V-1.4H1.15666V8.6ZM5.29666 8.6C5.45904 8.6 5.55398 8.61495 5.59499 8.62351C5.63355 8.63155 5.62739 8.63445 5.59349 8.61807L9.94382 -0.386074C8.43996 -1.11266 6.84875 -1.4 5.29666 -1.4V8.6ZM5.63478 8.63779C5.6106 8.62638 5.54067 8.58905 5.45227 8.51273C5.36222 8.43499 5.28489 8.34423 5.22726 8.25433L13.6461 2.85767C12.7072 1.39312 11.4087 0.304984 9.90253 -0.405788L5.63478 8.63779ZM5.22726 8.25433C5.1394 8.11727 5.08606 7.9841 5.05808 7.88001C5.03147 7.78102 5.03666 7.74201 5.03666 7.788H15.0367C15.0367 6.12908 14.6431 4.41302 13.6461 2.85767L5.22726 8.25433ZM5.03666 7.788C5.03666 7.84156 5.03064 7.81109 5.05463 7.72089C5.07994 7.62574 5.12914 7.50055 5.21176 7.37001L13.6616 12.718C14.6471 11.1608 15.0367 9.4468 15.0367 7.788H5.03666ZM5.22726 7.34567C5.28214 7.26006 5.35454 7.17529 5.43675 7.10373C5.5173 7.03361 5.57836 7.00124 5.5935 6.99393L9.94382 15.9981C11.4296 15.2802 12.714 14.1964 13.6461 12.7423L5.22726 7.34567ZM5.63478 6.97421C5.70438 6.94137 5.63258 7 5.29666 7V17C6.83273 17 8.40894 16.7226 9.90253 16.0178L5.63478 6.97421ZM5.29666 7H1.15666V17H5.29666V7ZM3.98866 14.792H5.17666V4.792H3.98866V14.792ZM5.17666 14.792C6.21192 14.792 7.37288 14.593 8.50468 14.0118L3.93663 5.11616C4.47644 4.83897 4.94139 4.792 5.17666 4.792V14.792ZM8.45673 14.0361C9.64939 13.4398 10.6201 12.5176 11.2771 11.36L2.58023 6.42397C2.90121 5.85844 3.39992 5.3842 3.98459 5.09186L8.45673 14.0361ZM11.3049 11.3104C11.9702 10.1064 12.1807 8.86261 12.1807 7.788H2.18066C2.18066 7.57739 2.22307 7.06959 2.55245 6.47357L11.3049 11.3104ZM12.1807 7.788C12.1807 6.70883 11.9651 5.45212 11.2771 4.23998L2.58023 9.17602C2.22825 8.55588 2.18066 8.01917 2.18066 7.788H12.1807ZM11.2771 4.23997C10.6201 3.08244 9.64939 2.1602 8.45672 1.56386L3.98459 10.5081C3.39992 10.2158 2.90121 9.74156 2.58023 9.17603L11.2771 4.23997ZM8.50468 1.58817C7.37288 1.00697 6.21192 0.808 5.17666 0.808V10.808C4.94139 10.808 4.47643 10.761 3.93663 10.4838L8.50468 1.58817ZM5.17666 0.808H3.98866V10.808H5.17666V0.808ZM-1.01134 5.808V9.792H8.98866V5.808H-1.01134ZM12.5107 11.676L10.2747 16.1481C10.2826 16.1521 10.2906 16.1561 10.2986 16.16L12.5107 11.676ZM11.1307 10.464L6.90173 13.1315C6.90797 13.1414 6.91425 13.1513 6.92056 13.1611L11.1307 10.464ZM11.1187 6.948L6.90856 4.25086C6.89853 4.26652 6.88858 4.28224 6.87873 4.29801L11.1187 6.948ZM12.4507 5.748L10.1896 1.2885C10.181 1.29283 10.1725 1.29718 10.164 1.30156L12.4507 5.748ZM16.1467 5.7L14.0177 10.2241C14.0262 10.2281 14.0346 10.232 14.0431 10.2359L16.1467 5.7ZM17.4667 6.84L13.276 9.56728C13.2861 9.58274 13.2962 9.59815 13.3065 9.6135L17.4667 6.84ZM17.9587 9.036L22.946 9.39223C22.9466 9.38435 22.9471 9.37647 22.9476 9.36859L17.9587 9.036ZM17.9347 9.348V14.348C20.5352 14.348 22.7015 12.3547 22.9174 9.76325L17.9347 9.348ZM12.8827 9.348H7.88272C7.88272 12.1094 10.1213 14.348 12.8827 14.348V9.348ZM12.8827 8.04V3.04C10.1213 3.04 7.88272 5.27858 7.88272 8.04H12.8827ZM16.4947 8.04L18.1092 12.7722C20.4238 11.9825 21.8275 9.63436 21.4273 7.22172C21.0271 4.80907 18.9403 3.04 16.4947 3.04V8.04ZM15.4747 8.388H10.4747C10.4747 10.0014 11.2533 11.5157 12.5655 12.4545C13.8777 13.3933 15.5622 13.6411 17.0892 13.1202L15.4747 8.388ZM15.3307 7.74L10.82 9.89728C10.8583 9.97733 10.8987 10.0564 10.9412 10.1343L15.3307 7.74ZM14.9587 7.32L12.2338 11.5122C12.284 11.5449 12.3349 11.5766 12.3862 11.6075L14.9587 7.32ZM13.7947 7.32L16.3672 11.6075C16.387 11.5956 16.4068 11.5835 16.4265 11.5713L13.7947 7.32ZM13.4227 7.74L17.8949 9.97607C17.9079 9.94992 17.9208 9.92365 17.9334 9.89727L13.4227 7.74ZM13.4587 9.516L17.8212 7.07298L17.8212 7.07298L13.4587 9.516ZM13.9387 9.972L11.7027 14.4441C11.7492 14.4674 11.7962 14.49 11.8434 14.5118L13.9387 9.972ZM15.4387 9.996L13.5818 5.35362C13.5597 5.36246 13.5376 5.37146 13.5156 5.38062L15.4387 9.996ZM16.0627 9.636L19.6131 6.11542C17.8634 4.35088 15.0834 4.1391 13.0866 5.61821L16.0627 9.636ZM17.4787 11.064L21.1397 14.4695C22.967 12.5051 22.9183 9.44855 21.0291 7.54342L17.4787 11.064ZM16.2907 11.856L18.064 16.531C18.0783 16.5256 18.0925 16.5201 18.1068 16.5145L16.2907 11.856ZM14.6107 7.12C14.5181 7.12 14.4928 7.11138 14.52 7.11714C14.5499 7.12347 14.6238 7.14312 14.7228 7.19197L10.2986 16.16C11.7086 16.8556 13.1922 17.12 14.6107 17.12V7.12ZM14.7468 7.20386C14.8036 7.23227 14.9039 7.29122 15.0212 7.39419C15.1404 7.49891 15.2507 7.62603 15.3409 7.76686L6.92056 13.1611C7.77723 14.4984 8.9504 15.486 10.2747 16.1481L14.7468 7.20386ZM15.3597 7.79648C15.4496 7.93894 15.5253 8.10537 15.5755 8.28418C15.6252 8.46113 15.6387 8.6101 15.6387 8.712H5.63872C5.63872 10.2507 6.04227 11.769 6.90173 13.1315L15.3597 7.79648ZM15.6387 8.712C15.6387 8.78407 15.6296 8.91552 15.5833 9.08581C15.5361 9.25929 15.4604 9.43537 15.3587 9.59799L6.87873 4.29801C6.01318 5.68288 5.63872 7.20763 5.63872 8.712H15.6387ZM15.3289 9.64514C15.2561 9.75879 15.1602 9.87446 15.0444 9.97881C14.9294 10.0824 14.8203 10.1519 14.7375 10.1944L10.164 1.30156C8.84899 1.97784 7.72962 2.9692 6.90856 4.25086L15.3289 9.64514ZM14.7119 10.2075C14.6201 10.254 14.5315 10.2839 14.4578 10.3006C14.3861 10.3168 14.349 10.316 14.3587 10.316V0.316C12.9531 0.316 11.5297 0.60899 10.1896 1.2885L14.7119 10.2075ZM14.3587 10.316C14.3519 10.316 14.3098 10.3151 14.2418 10.3005C14.1726 10.2857 14.0952 10.2605 14.0177 10.2241L18.2757 1.17591C17.015 0.582614 15.6845 0.316 14.3587 0.316V10.316ZM14.0431 10.2359C13.9176 10.1777 13.77 10.0884 13.6226 9.96111C13.4749 9.83351 13.3595 9.69556 13.276 9.56728L21.6574 4.11272C20.8109 2.81202 19.6433 1.81008 18.2503 1.16406L14.0431 10.2359ZM13.3065 9.6135C12.9813 9.12569 12.9707 8.72812 12.9707 8.712H22.9707C22.9707 7.20788 22.6242 5.56231 21.627 4.0665L13.3065 9.6135ZM12.9707 8.712C12.9707 8.69121 12.9711 8.68009 12.9711 8.67994C12.9712 8.67961 12.9709 8.68716 12.9698 8.70341L22.9476 9.36859C22.9613 9.16414 22.9707 8.94248 22.9707 8.712H12.9707ZM12.9714 8.67977C12.9646 8.77521 12.9581 8.85931 12.952 8.93275L22.9174 9.76325C22.9273 9.64469 22.9368 9.52079 22.946 9.39223L12.9714 8.67977ZM17.9347 4.348H12.8827V14.348H17.9347V4.348ZM17.8827 9.348V8.04H7.88272V9.348H17.8827ZM12.8827 13.04H16.4947V3.04H12.8827V13.04ZM14.8802 3.30784L13.8602 3.65584L17.0892 13.1202L18.1092 12.7722L14.8802 3.30784ZM20.4747 8.388C20.4747 7.52165 20.3127 6.43203 19.7202 5.34574L10.9412 10.1343C10.5407 9.39997 10.4747 8.74235 10.4747 8.388H20.4747ZM19.8414 5.58272C19.3713 4.5998 18.6103 3.67998 17.5312 3.03253L12.3862 11.6075C11.6272 11.152 11.1141 10.5122 10.82 9.89728L19.8414 5.58272ZM17.6837 3.12778C16.58 2.41039 15.4027 2.164 14.3827 2.164V12.164C13.8108 12.164 13.0175 12.0216 12.2338 11.5122L17.6837 3.12778ZM14.3827 2.164C13.3563 2.164 12.2233 2.41229 11.1629 3.06868L16.4265 11.5713C15.7022 12.0197 14.9611 12.164 14.3827 12.164V2.164ZM11.2222 3.03253C10.1432 3.67998 9.38214 4.5998 8.91205 5.58273L17.9334 9.89727C17.6393 10.5122 17.1263 11.152 16.3672 11.6075L11.2222 3.03253ZM8.95058 5.50393C8.42708 6.55094 8.29072 7.58102 8.29072 8.388H18.2907C18.2907 8.68298 18.2424 9.28106 17.8949 9.97607L8.95058 5.50393ZM8.29072 8.388V8.796H18.2907V8.388H8.29072ZM8.29072 8.796C8.29072 9.74333 8.48301 10.8641 9.09619 11.959L17.8212 7.07298C18.2104 7.76794 18.2907 8.40867 18.2907 8.796H8.29072ZM9.09619 11.959C9.70523 13.0466 10.6124 13.899 11.7027 14.4441L16.1748 5.49986C16.849 5.83698 17.4362 6.38541 17.8212 7.07298L9.09619 11.959ZM11.8434 14.5118C12.8707 14.9859 13.8784 15.116 14.6947 15.116V5.116C14.9191 5.116 15.4228 5.15008 16.034 5.4322L11.8434 14.5118ZM14.6947 15.116C15.3802 15.116 16.3473 15.0341 17.3618 14.6114L13.5156 5.38062C13.847 5.24257 14.1267 5.17978 14.3126 5.14979C14.4997 5.1196 14.6334 5.116 14.6947 5.116V15.116ZM17.2957 14.6384C17.978 14.3654 18.5594 14.009 19.0389 13.6538L13.0866 5.61821C13.1341 5.58303 13.2994 5.46656 13.5818 5.35362L17.2957 14.6384ZM12.5123 13.1566L13.9283 14.5846L21.0291 7.54342L19.6131 6.11542L12.5123 13.1566ZM13.8178 7.65848C14.0499 7.40891 14.3011 7.26511 14.4747 7.19746L18.1068 16.5145C19.2243 16.0789 20.2675 15.4071 21.1397 14.4695L13.8178 7.65848ZM14.5174 7.18101C14.6495 7.13091 14.7331 7.11673 14.7465 7.11461C14.7595 7.11257 14.7183 7.12 14.6107 7.12V17.12C15.6885 17.12 16.8837 16.9787 18.064 16.531L14.5174 7.18101ZM19.7386 11.94L18.6615 16.8226L19.7386 11.94ZM18.4186 11.472L13.8023 9.55112C12.8339 11.8784 13.7493 14.5626 15.9379 15.8132L18.4186 11.472ZM19.1626 9.684L21.7025 5.37717C20.4565 4.64236 18.9534 4.48317 17.5811 4.94069C16.2088 5.39821 15.102 6.42761 14.5463 7.76312L19.1626 9.684ZM20.2426 10.116L19.0075 14.9611C19.015 14.963 19.0224 14.9648 19.0299 14.9667L20.2426 10.116ZM22.1146 10.188L20.0001 5.65708C19.9593 5.67613 19.9188 5.69572 19.8785 5.71586L22.1146 10.188ZM22.0906 9.756L20.4265 14.471C20.5101 14.5005 20.5946 14.5278 20.6797 14.5528L22.0906 9.756ZM20.8066 9.564L20.0575 14.5076C20.1123 14.5159 20.1673 14.5233 20.2224 14.5298L20.8066 9.564ZM20.0026 9.396L18.7231 14.2295L18.7231 14.2295L20.0026 9.396ZM19.2586 9.072L16.5548 13.2779L16.5548 13.2779L19.2586 9.072ZM18.7186 8.496L14.3345 10.9002C14.3457 10.9205 14.357 10.9408 14.3685 10.9611L18.7186 8.496ZM18.8866 6.432L14.9094 3.40178C14.894 3.42199 14.8788 3.4423 14.8637 3.46274L18.8866 6.432ZM20.0146 5.628L21.8844 10.2652C21.897 10.2601 21.9095 10.255 21.922 10.2499L20.0146 5.628ZM23.3146 5.448L22.4129 10.366L22.4129 10.366L23.3146 5.448ZM24.5506 5.856L29.1669 7.77688C30.1558 5.40026 29.1787 2.66118 26.9088 1.44708L24.5506 5.856ZM23.8066 7.644L21.405 12.0295C22.6494 12.7109 24.1247 12.8316 25.4633 12.3615C26.8019 11.8914 27.8778 10.8748 28.4229 9.56488L23.8066 7.644ZM22.8106 7.272L21.713 12.15C21.7595 12.1605 21.8062 12.1703 21.853 12.1795L22.8106 7.272ZM21.2026 7.26L18.9665 2.78787C18.9273 2.80748 18.8883 2.8276 18.8496 2.84823L21.2026 7.26ZM21.2266 7.692L22.8907 2.97705L22.8907 2.97705L21.2266 7.692ZM21.7666 7.8L22.2992 2.82845L22.2992 2.82845L21.7666 7.8ZM22.4986 7.896L21.7495 12.8396C21.8044 12.8479 21.8593 12.8553 21.9144 12.8618L22.4986 7.896ZM23.3026 8.064L21.8525 12.8491C21.9091 12.8663 21.966 12.8824 22.0231 12.8975L23.3026 8.064ZM24.0466 8.388L26.7504 4.18211L26.7503 4.18211L24.0466 8.388ZM24.5866 8.976L20.2025 11.3802C20.2137 11.4005 20.225 11.4208 20.2365 11.4411L24.5866 8.976ZM24.4186 11.004L28.4414 13.9733C28.4525 13.9582 28.4635 13.9432 28.4744 13.928L24.4186 11.004ZM23.2906 11.82L25.1348 16.4675C25.1559 16.4591 25.177 16.4505 25.198 16.4419L23.2906 11.82ZM21.3946 7.12C21.1949 7.12 21.004 7.09895 20.8156 7.05738L18.6615 16.8226C19.5611 17.0211 20.4743 17.12 21.3946 17.12V7.12ZM20.8156 7.05738C20.7077 7.03358 20.6643 7.01793 20.6714 7.02043C20.6763 7.02216 20.6988 7.03033 20.736 7.04701C20.7731 7.06364 20.829 7.09065 20.8993 7.13078L15.9379 15.8132C16.8578 16.3389 17.8217 16.6374 18.6615 16.8226L20.8156 7.05738ZM23.0349 13.3929L23.7789 11.6049L14.5463 7.76312L13.8023 9.55112L23.0349 13.3929ZM16.6226 13.9908C17.4017 14.4503 18.2138 14.7587 19.0075 14.9611L21.4776 5.27093C21.4553 5.26525 21.5474 5.28569 21.7025 5.37717L16.6226 13.9908ZM19.0299 14.9667C19.8057 15.1607 20.6175 15.272 21.4546 15.272V5.272C21.4801 5.272 21.4944 5.27372 21.4959 5.27391C21.4971 5.27407 21.4839 5.27246 21.4552 5.26529L19.0299 14.9667ZM21.4546 15.272C21.7399 15.272 22.1042 15.261 22.4968 15.211C22.8041 15.1719 23.5447 15.0631 24.3506 14.6601L19.8785 5.71586C20.2656 5.52233 20.5941 5.42551 20.7839 5.37749C20.9856 5.32646 21.1438 5.30252 21.2343 5.29101C21.407 5.26903 21.4972 5.272 21.4546 5.272V15.272ZM24.229 14.7189C25.3282 14.206 27.2946 12.7337 27.2946 9.96H17.2946C17.2946 8.87318 17.665 7.82692 18.3252 6.99078C18.9226 6.23398 19.5996 5.844 20.0001 5.65708L24.229 14.7189ZM27.2946 9.96C27.2946 8.58333 26.7489 7.27132 25.7791 6.30147C24.9388 5.4612 24.019 5.11141 23.5014 4.95917L20.6797 14.5528C20.2981 14.4406 19.4803 14.1448 18.708 13.3725C17.8062 12.4707 17.2946 11.2407 17.2946 9.96H27.2946ZM23.7547 5.04105C23.1084 4.81296 22.5034 4.72147 22.0832 4.67645L21.0179 14.6195C21.0119 14.6189 20.9599 14.6133 20.873 14.5959C20.7902 14.5794 20.6321 14.5435 20.4265 14.471L23.7547 5.04105ZM22.0832 4.67645C21.8796 4.65464 21.6491 4.62864 21.3908 4.59825L20.2224 14.5298C20.508 14.5634 20.7735 14.5934 21.0179 14.6195L22.0832 4.67645ZM21.5556 4.62042C21.4795 4.6089 21.3886 4.59069 21.282 4.56247L18.7231 14.2295C19.1605 14.3453 19.6056 14.4391 20.0575 14.5076L21.5556 4.62042ZM21.282 4.56247C21.486 4.61646 21.723 4.71222 21.9624 4.86611L16.5548 13.2779C17.2422 13.7198 17.9752 14.0315 18.7231 14.2295L21.282 4.56247ZM21.9624 4.86611C22.445 5.1764 22.82 5.59204 23.0687 6.03094L14.3685 10.9611C14.8892 11.88 15.6241 12.6796 16.5548 13.2779L21.9624 4.86611ZM23.1026 6.09184C23.4821 6.78373 23.5146 7.36233 23.5146 7.56H13.5146C13.5146 8.50967 13.6831 9.71227 14.3345 10.9002L23.1026 6.09184ZM23.5146 7.56C23.5146 7.85689 23.4689 8.18953 23.356 8.53198C23.2431 8.87422 23.0828 9.16639 22.9094 9.40126L14.8637 3.46274C13.9837 4.65503 13.5146 6.07079 13.5146 7.56H23.5146ZM22.8637 9.46221C22.4474 10.0086 22.0036 10.2171 21.8844 10.2652L18.1447 0.990792C17.0335 1.43887 15.8377 2.18336 14.9094 3.40178L22.8637 9.46221ZM21.922 10.2499C21.7786 10.3091 21.6902 10.3242 21.6847 10.3251C21.681 10.3257 21.6942 10.3233 21.7267 10.3209C21.7591 10.3184 21.8079 10.316 21.8746 10.316V0.316C20.6996 0.316 19.3876 0.477671 18.1071 1.00613L21.922 10.2499ZM21.8746 10.316C22.0471 10.316 22.2254 10.3317 22.4129 10.366L24.2162 0.529968C23.4437 0.388345 22.662 0.316 21.8746 0.316V10.316ZM22.4129 10.366C22.4548 10.3737 22.4529 10.3761 22.4163 10.364C22.3793 10.3518 22.3001 10.3226 22.1923 10.2649L26.9088 1.44708C26.0108 0.966718 25.0832 0.688917 24.2162 0.529967L22.4129 10.366ZM19.9343 3.93512L19.1903 5.72312L28.4229 9.56488L29.1669 7.77688L19.9343 3.93512ZM26.2081 3.25852C25.4854 2.86271 24.6692 2.54037 23.7681 2.36455L21.853 12.1795C21.6079 12.1316 21.4558 12.0573 21.405 12.0295L26.2081 3.25852ZM23.9081 2.39395C23.2876 2.25432 22.6163 2.164 21.9106 2.164V12.164C21.7648 12.164 21.6936 12.1457 21.713 12.15L23.9081 2.39395ZM21.9106 2.164C21.6033 2.164 21.2183 2.17713 20.8037 2.23334C20.4526 2.28095 19.7406 2.40083 18.9665 2.78787L23.4386 11.7321C23.0851 11.9089 22.783 12.0028 22.5939 12.0527C22.3971 12.1046 22.2412 12.1299 22.1474 12.1427C21.9689 12.1669 21.8738 12.164 21.9106 12.164V2.164ZM18.8496 2.84823C18.2906 3.14638 16.0226 4.50841 16.0226 7.476H26.0226C26.0226 8.80037 25.4926 9.86221 24.9087 10.5629C24.3835 11.1932 23.8298 11.5255 23.5555 11.6718L18.8496 2.84823ZM16.0226 7.476C16.0226 8.84471 16.5586 10.1035 17.4385 11.0351C18.21 11.852 19.0622 12.2304 19.5625 12.407L22.8907 2.97705C23.2549 3.10561 24.0051 3.42396 24.7086 4.16888C25.5205 5.02851 26.0226 6.20329 26.0226 7.476H16.0226ZM19.5625 12.407C20.2087 12.635 20.8138 12.7265 21.2339 12.7715L22.2992 2.82845C22.3052 2.8291 22.3572 2.83471 22.4441 2.8521C22.5269 2.86865 22.685 2.90447 22.8907 2.97705L19.5625 12.407ZM21.2339 12.7715C21.3738 12.7865 21.5447 12.8085 21.7495 12.8396L23.2476 2.95242C22.9244 2.90345 22.6073 2.86146 22.2992 2.82845L21.2339 12.7715ZM21.9144 12.8618C21.8909 12.859 21.8692 12.8542 21.8525 12.8491L24.7526 3.27888C24.2079 3.11383 23.6503 2.99701 23.0828 2.93025L21.9144 12.8618ZM22.0231 12.8975C21.8192 12.8435 21.5822 12.7478 21.3428 12.5939L26.7503 4.18211C26.063 3.74022 25.33 3.42846 24.582 3.23047L22.0231 12.8975ZM21.3428 12.5939C20.8215 12.2588 20.4418 11.8166 20.2025 11.3802L28.9706 6.57184C28.4593 5.63942 27.7196 4.8052 26.7504 4.18211L21.3428 12.5939ZM20.2365 11.4411C19.8195 10.7052 19.7906 10.0876 19.7906 9.9H29.7906C29.7906 8.9604 29.6257 7.72678 28.9367 6.51093L20.2365 11.4411ZM19.7906 9.9C19.7906 9.15524 20.0499 8.51388 20.3627 8.07999L28.4744 13.928C29.2832 12.8061 29.7906 11.4288 29.7906 9.9H19.7906ZM20.3957 8.03474C20.8307 7.44542 21.2963 7.23396 21.3831 7.19813L25.198 16.4419C26.2928 15.99 27.5105 15.2346 28.4414 13.9733L20.3957 8.03474ZM21.4463 7.17255C21.5202 7.14323 21.577 7.12621 21.6119 7.11698C21.6468 7.10777 21.663 7.10552 21.6571 7.10644C21.6513 7.10736 21.6272 7.11088 21.5823 7.1141C21.5375 7.11732 21.4755 7.12 21.3946 7.12V17.12C22.5511 17.12 23.8591 16.9737 25.1348 16.4675L21.4463 7.17255ZM26.6677 11.472L23.3794 15.2386C23.3908 15.2485 23.4023 15.2584 23.4138 15.2683L26.6677 11.472ZM25.9117 3.96V-1.04C23.1503 -1.04 20.9117 1.19858 20.9117 3.96L25.9117 3.96ZM28.6237 3.96H33.6237C33.6237 1.19858 31.3851 -1.04 28.6237 -1.04V3.96ZM28.7797 9.9L25.1157 13.3023C25.1577 13.3475 25.2006 13.3919 25.2442 13.4355L28.7797 9.9ZM29.7997 9.888L34.5279 8.26176C34.0208 6.78739 32.8549 5.63396 31.3752 5.14269C29.8954 4.65142 28.2712 4.87854 26.983 5.75686L29.7997 9.888ZM30.4477 11.772L32.9463 16.1029C35.0196 14.9068 35.9544 12.4092 35.1759 10.1458L30.4477 11.772ZM29.6917 12.036L28.7623 7.12315C28.754 7.12472 28.7457 7.12631 28.7374 7.12792L29.6917 12.036ZM25.0117 7.776H20.0117C20.0117 10.5374 22.2503 12.776 25.0117 12.776V7.776ZM25.0117 5.796V0.796C22.2503 0.796 20.0117 3.03458 20.0117 5.796L25.0117 5.796ZM29.9677 5.796H34.9677C34.9677 3.03458 32.7291 0.796 29.9677 0.796V5.796ZM29.9677 7.776V12.776C32.7291 12.776 34.9677 10.5374 34.9677 7.776L29.9677 7.776ZM28.7797 7.12C28.6363 7.12 29.2375 7.08925 29.9217 7.67572L23.4138 15.2683C25.106 16.7188 27.1151 17.12 28.7797 17.12V7.12ZM29.956 7.70542C30.3729 8.06934 30.6394 8.50101 30.7824 8.88238C30.8488 9.05959 30.8808 9.2044 30.8963 9.30104C30.9116 9.39677 30.9117 9.45172 30.9117 9.456H20.9117C20.9117 11.2709 21.4421 13.5473 23.3794 15.2386L29.956 7.70542ZM30.9117 9.456V3.96H20.9117V9.456H30.9117ZM25.9117 8.96H28.6237V-1.04H25.9117V8.96ZM23.6237 3.96V9.432H33.6237V3.96H23.6237ZM23.6237 9.432C23.6237 10.4936 23.9146 12.0087 25.1157 13.3023L32.4437 6.49775C33.4368 7.5673 33.6237 8.77042 33.6237 9.432H23.6237ZM25.2442 13.4355C26.3045 14.4959 27.7168 15.068 29.1877 15.068V5.068C29.703 5.068 30.2824 5.16086 30.8695 5.40261C31.4576 5.64477 31.9407 5.98995 32.3153 6.36447L25.2442 13.4355ZM29.1877 15.068C30.3308 15.068 31.5359 14.7558 32.6164 14.0191L26.983 5.75686C27.7115 5.26017 28.5086 5.068 29.1877 5.068V15.068ZM25.0716 11.5142L25.7196 13.3982L35.1759 10.1458L34.5279 8.26176L25.0716 11.5142ZM27.9491 7.44107C28.3336 7.21923 28.6407 7.14614 28.7623 7.12315L30.6212 16.9489C31.3347 16.8139 32.1458 16.5648 32.9463 16.1029L27.9491 7.44107ZM28.7374 7.12792C28.7907 7.11756 28.808 7.12 28.7797 7.12V17.12C29.3915 17.12 30.0168 17.0664 30.6461 16.9441L28.7374 7.12792ZM30.0117 7.776V5.796H20.0117V7.776H30.0117ZM25.0117 10.796H29.9677V0.796H25.0117V10.796ZM24.9677 5.796V7.776H34.9677V5.796H24.9677ZM29.9677 2.776H25.0117V12.776H29.9677V2.776ZM31.1313 12H26.1313C26.1313 14.7614 28.3698 17 31.1313 17V12ZM31.1313 5.436V0.435999C28.3698 0.435999 26.1313 2.67458 26.1313 5.436L31.1313 5.436ZM33.8433 5.436H38.8433C38.8433 2.67458 36.6047 0.435999 33.8433 0.435999V5.436ZM33.8433 12V17C36.6047 17 38.8433 14.7614 38.8433 12L33.8433 12ZM31.2993 4.512L34.6273 0.780522L34.6273 0.780522L31.2993 4.512ZM31.2993 2.544L34.6273 6.27548L34.6273 6.27548L31.2993 2.544ZM33.6753 2.52L30.4642 6.3526L30.4642 6.3526L33.6753 2.52ZM33.6753 4.512L37.0033 8.24348C37.0218 8.227 37.0402 8.21039 37.0584 8.19364L33.6753 4.512ZM36.1313 12V5.436H26.1313V12H36.1313ZM31.1313 10.436H33.8433V0.435999H31.1313V10.436ZM28.8433 5.436V12H38.8433V5.436H28.8433ZM33.8433 7H31.1313V17H33.8433V7ZM32.4873 -0.0920002C32.8994 -0.0920002 33.7941 0.0373814 34.6273 0.780522L27.9712 8.24348C29.3964 9.51462 31.0831 9.908 32.4873 9.908V-0.0920002ZM34.6273 0.780522C34.9481 1.06663 35.2815 1.47468 35.5238 2.01156C35.7667 2.54988 35.8553 3.07899 35.8553 3.528H25.8553C25.8553 5.36441 26.6259 7.04361 27.9712 8.24348L34.6273 0.780522ZM35.8553 3.528C35.8553 3.97701 35.7667 4.50612 35.5238 5.04444C35.2815 5.58132 34.9481 5.98937 34.6273 6.27548L27.9712 -1.18748C26.6259 0.0123861 25.8553 1.69159 25.8553 3.528H35.8553ZM34.6273 6.27548C33.7941 7.01862 32.8994 7.148 32.4873 7.148V-2.852C31.0831 -2.852 29.3964 -2.45862 27.9712 -1.18748L34.6273 6.27548ZM32.4873 7.148C32.1497 7.148 31.2988 7.05191 30.4642 6.3526L36.8863 -1.3126C35.4597 -2.50791 33.8168 -2.852 32.4873 -2.852V7.148ZM30.4642 6.3526C30.102 6.04916 29.7339 5.61514 29.4701 5.04489C29.2073 4.47672 29.1193 3.92718 29.1193 3.48H39.1193C39.1193 1.63461 38.3359 -0.0981065 36.8863 -1.3126L30.4642 6.3526ZM29.1193 3.48C29.1193 3.08407 29.1924 2.592 29.4153 2.07396C29.6399 1.55191 29.9598 1.13571 30.2921 0.830364L37.0584 8.19364C38.4248 6.93804 39.1193 5.24019 39.1193 3.48H29.1193ZM30.3472 0.780522C31.1804 0.0373813 32.0751 -0.0920002 32.4873 -0.0920002V9.908C33.8914 9.908 35.5781 9.51462 37.0033 8.24348L30.3472 0.780522ZM40.9733 5.628L38.7024 10.0825C38.7257 10.0944 38.7491 10.1061 38.7725 10.1176L40.9733 5.628ZM41.9333 6.576L37.5283 8.94163C37.5396 8.96257 37.551 8.98344 37.5625 9.00422L41.9333 6.576ZM42.2933 12V17C45.0547 17 47.2933 14.7614 47.2933 12L42.2933 12ZM39.5813 12H34.5813C34.5813 14.7614 36.8199 17 39.5813 17V12ZM39.3653 7.86L35.4955 11.0262C35.5197 11.0557 35.5442 11.085 35.569 11.114L39.3653 7.86ZM38.2613 7.728L40.59 12.1526C40.6171 12.1383 40.6441 12.1238 40.6709 12.1091L38.2613 7.728ZM37.8893 8.136L33.4172 5.89993C33.3919 5.95044 33.3675 6.00139 33.344 6.05273L37.8893 8.136ZM37.7573 12V17C40.5187 17 42.7573 14.7614 42.7573 12L37.7573 12ZM35.0453 12H30.0453C30.0453 14.7614 32.2839 17 35.0453 17V12ZM35.0453 5.436V0.435999C32.2839 0.435999 30.0453 2.67458 30.0453 5.436L35.0453 5.436ZM37.6253 5.436H42.6253C42.6253 2.67458 40.3867 0.435999 37.6253 0.435999V5.436ZM37.6253 7.356L33.9727 10.7704C35.3746 12.2702 37.5509 12.7606 39.4606 12.007C41.3703 11.2534 42.6253 9.40901 42.6253 7.356L37.6253 7.356ZM37.1093 6.804L32.6662 4.51079C31.6967 6.38915 32.0132 8.67423 33.4567 10.2184L37.1093 6.804ZM38.1413 5.688L35.6862 1.33224C35.6748 1.33869 35.6634 1.34519 35.652 1.35173L38.1413 5.688ZM39.6053 10.316C39.4006 10.316 39.0662 10.268 38.7024 10.0825L43.2443 1.17347C42.0644 0.571983 40.818 0.316 39.6053 0.316V10.316ZM38.7725 10.1176C38.4967 9.98239 38.2344 9.79815 38.0061 9.5727C37.7805 9.34992 37.6272 9.12578 37.5283 8.94163L46.3383 4.21037C45.653 2.93432 44.5963 1.83556 43.1741 1.1384L38.7725 10.1176ZM37.5625 9.00422C37.4079 8.7259 37.3418 8.49594 37.3143 8.36765C37.2875 8.24271 37.2933 8.19624 37.2933 8.256H47.2933C47.2933 7.03453 47.0871 5.55715 46.3041 4.14778L37.5625 9.00422ZM37.2933 8.256V12H47.2933V8.256H37.2933ZM42.2933 7H39.5813V17H42.2933V7ZM44.5813 12V8.724H34.5813V12H44.5813ZM44.5813 8.724C44.5813 8.0128 44.5125 6.18204 43.1616 4.60604L35.569 11.114C34.9936 10.4426 34.7675 9.7783 34.6766 9.41468C34.5843 9.04558 34.5813 8.78818 34.5813 8.724H44.5813ZM43.2351 4.69381C42.0476 3.24247 40.3703 2.596 38.7773 2.596V12.596C38.3037 12.596 37.7004 12.5098 37.0624 12.2233C36.4119 11.9313 35.885 11.5022 35.4955 11.0262L43.2351 4.69381ZM38.7773 2.596C37.7575 2.596 36.7558 2.84966 35.8517 3.34692L40.6709 12.1091C40.0868 12.4303 39.4291 12.596 38.7773 12.596V2.596ZM35.9326 3.30341C34.6458 3.98067 33.8631 5.00816 33.4172 5.89993L42.3614 10.3721C42.1076 10.8798 41.5728 11.6353 40.59 12.1526L35.9326 3.30341ZM33.344 6.05273C32.8367 7.15959 32.7573 8.22606 32.7573 8.916H42.7573C42.7573 8.96716 42.7545 9.10669 42.7202 9.30929C42.6865 9.50872 42.6115 9.83343 42.4346 10.2193L33.344 6.05273ZM32.7573 8.916V12H42.7573V8.916H32.7573ZM37.7573 7H35.0453V17H37.7573V7ZM40.0453 12V5.436H30.0453V12H40.0453ZM35.0453 10.436H37.6253V0.435999H35.0453V10.436ZM32.6253 5.436V7.356H42.6253V5.436H32.6253ZM41.2779 3.94158L40.7619 3.38958L33.4567 10.2184L33.9727 10.7704L41.2779 3.94158ZM41.5524 9.09721C41.4222 9.3496 41.131 9.73705 40.6306 10.0243L35.652 1.35173C34.2877 2.13495 33.3085 3.2664 32.6662 4.51079L41.5524 9.09721ZM40.5964 10.0438C40.4331 10.1358 40.2538 10.208 40.0687 10.255C39.8852 10.3016 39.7259 10.316 39.6053 10.316V0.316C38.2637 0.316 36.9217 0.635911 35.6862 1.33224L40.5964 10.0438ZM47.4431 12H42.4431C42.4431 14.7614 44.6817 17 47.4431 17V12ZM47.4431 10.836H52.4431C52.4431 9.9107 52.1863 9.00355 51.7014 8.21551L47.4431 10.836ZM47.2511 10.524H42.2511C42.2511 11.4493 42.5079 12.3564 42.9928 13.1445L47.2511 10.524ZM46.9511 7.584L43.6586 11.3469C43.6839 11.369 43.7094 11.3909 43.7351 11.4125L46.9511 7.584ZM45.1031 7.476L46.4934 12.2788C46.532 12.2676 46.5704 12.256 46.6088 12.2439L45.1031 7.476ZM44.3231 7.848L39.8212 10.0234C40.4691 11.3643 41.681 12.3466 43.127 12.7028C44.573 13.0591 46.1026 12.7522 47.2992 11.8658L44.3231 7.848ZM43.4591 6.06L40.8091 1.82001C38.6451 3.17253 37.8468 5.9377 38.9572 8.23543L43.4591 6.06ZM44.8391 5.508L46.0005 10.3713L46.0005 10.3713L44.8391 5.508ZM49.0271 6.072L45.8609 9.94179C45.8691 9.94845 45.8772 9.95509 45.8854 9.96171L49.0271 6.072ZM49.9631 12V17C52.7245 17 54.9631 14.7614 54.9631 12L49.9631 12ZM44.2391 11.844L41.9635 16.2962L44.2391 11.844ZM43.4231 11.112L39.1163 13.6519C39.1259 13.6683 39.1357 13.6847 39.1456 13.701L43.4231 11.112ZM43.4711 9L47.51 11.9473L47.51 11.9473L43.4711 9ZM44.4551 8.328L42.8486 3.59311C42.8399 3.59606 42.8312 3.59904 42.8225 3.60205L44.4551 8.328ZM47.5151 8.1H52.5151C52.5151 5.33858 50.2765 3.1 47.5151 3.1V8.1ZM47.5151 9.408V14.408C50.2765 14.408 52.5151 12.1694 52.5151 9.408H47.5151ZM45.9431 9.552L48.7757 13.6722C48.7927 13.6605 48.8097 13.6487 48.8265 13.6368L45.9431 9.552ZM45.9191 10.344L42.5168 14.008C42.6068 14.0915 42.6998 14.1717 42.7956 14.2483L45.9191 10.344ZM46.9031 10.344L49.5731 14.5714C49.5915 14.5598 49.6098 14.5481 49.628 14.5362L46.9031 10.344ZM47.2511 9.864L51.8397 7.87788C51.0164 5.9758 49.105 4.77884 47.0343 4.8687C44.9637 4.95856 43.1631 6.31661 42.5077 8.28286L47.2511 9.864ZM47.5991 10.668L52.4893 11.7102C52.7059 10.6939 52.6004 9.63546 52.1877 8.68188L47.5991 10.668ZM46.9391 11.76L44.0329 7.69133L44.0329 7.69133L46.9391 11.76ZM52.4431 12V10.836H42.4431V12H52.4431ZM51.7014 8.21551L51.5094 7.90351L42.9928 13.1445L43.1848 13.4565L51.7014 8.21551ZM52.2511 10.524V8.316H42.2511V10.524H52.2511ZM52.2511 8.316C52.2511 6.88284 51.7498 5.08502 50.1671 3.75548L43.7351 11.4125C43.2093 10.9709 42.8034 10.4084 42.5496 9.78912C42.3064 9.19571 42.2511 8.67101 42.2511 8.316H52.2511ZM50.2436 3.82112C48.6779 2.45112 46.8521 2.332 46.0031 2.332V12.332C45.9284 12.332 45.6625 12.3274 45.2856 12.2272C44.9035 12.1256 44.2802 11.8908 43.6586 11.3469L50.2436 3.82112ZM46.0031 2.332C45.1585 2.332 44.3511 2.4701 43.5974 2.70809L46.6088 12.2439C46.4631 12.2899 46.2557 12.332 46.0031 12.332V2.332ZM43.7128 2.67318C42.9369 2.89779 42.1172 3.2597 41.347 3.83021L47.2992 11.8658C46.961 12.1163 46.6613 12.2302 46.4934 12.2788L43.7128 2.67318ZM48.825 5.67256L47.961 3.88456L38.9572 8.23543L39.8212 10.0234L48.825 5.67256ZM46.1091 10.3C46.027 10.3513 45.9693 10.3763 45.949 10.3844C45.9294 10.3923 45.9434 10.3849 46.0005 10.3713L43.6777 0.644748C42.7253 0.872189 41.7395 1.23853 40.8091 1.82001L46.1091 10.3ZM46.0005 10.3713C46.1848 10.3272 46.3188 10.316 46.4111 10.316V0.316C45.4794 0.316 44.5654 0.432768 43.6777 0.644749L46.0005 10.3713ZM46.4111 10.316C46.6142 10.316 46.6319 10.3399 46.5229 10.3084C46.4 10.2729 46.1449 10.1741 45.8609 9.94179L52.1933 2.20221C50.3761 0.715421 48.2204 0.316 46.4111 0.316V10.316ZM45.8854 9.96171C45.4722 9.628 45.2081 9.21883 45.0708 8.86673C44.9481 8.55212 44.9631 8.38128 44.9631 8.472H54.9631C54.9631 6.45244 54.3593 3.95153 52.1688 2.18229L45.8854 9.96171ZM44.9631 8.472V12H54.9631V8.472H44.9631ZM49.9631 7H47.4431V17H49.9631V7ZM45.5831 7.12C45.591 7.12 45.9788 7.11794 46.5146 7.39183L41.9635 16.2962C43.2194 16.9381 44.5032 17.12 45.5831 17.12V7.12ZM46.5146 7.39183C46.8655 7.57113 47.3398 7.92684 47.7006 8.52299L39.1456 13.701C39.8744 14.9052 40.8927 15.7489 41.9635 16.2962L46.5146 7.39183ZM47.7299 8.57207C48.0175 9.05964 48.1471 9.59818 48.1471 10.08H38.1471C38.1471 11.3138 38.4607 12.5404 39.1163 13.6519L47.7299 8.57207ZM48.1471 10.08C48.1471 10.5429 48.0131 11.2579 47.51 11.9473L39.4321 6.05265C38.4971 7.33406 38.1471 8.76909 38.1471 10.08H48.1471ZM47.51 11.9473C46.9797 12.6741 46.3514 12.9628 46.0877 13.054L42.8225 3.60205C41.6788 3.99715 40.3945 4.73393 39.4321 6.05265L47.51 11.9473ZM46.0616 13.0629C45.992 13.0865 45.9407 13.0995 45.9118 13.106C45.8828 13.1125 45.8719 13.1136 45.8818 13.1122C45.8917 13.1109 45.9183 13.1077 45.9637 13.1049C46.0091 13.1022 46.0697 13.1 46.1471 13.1V3.1C45.1387 3.1 43.9864 3.20706 42.8486 3.59311L46.0616 13.0629ZM46.1471 13.1H47.5151V3.1H46.1471V13.1ZM42.5151 8.1V9.408H52.5151V8.1H42.5151ZM47.5151 4.408H46.5791V14.408H47.5151V4.408ZM46.5791 4.408C45.929 4.408 44.458 4.4801 43.0597 5.46716L48.8265 13.6368C48.2226 14.0631 47.6554 14.242 47.3082 14.3206C46.9568 14.4001 46.6945 14.408 46.5791 14.408V4.408ZM43.1104 5.43179C41.3617 6.63404 40.7511 8.47807 40.7511 9.96H50.7511C50.7511 10.4424 50.6668 11.1188 50.3232 11.849C49.9648 12.6105 49.4165 13.2317 48.7757 13.6722L43.1104 5.43179ZM40.7511 9.96C40.7511 11.5111 41.3924 12.9639 42.5168 14.008L49.3213 6.68003C49.7203 7.05046 50.1021 7.54476 50.3739 8.16591C50.6459 8.78768 50.7511 9.40747 50.7511 9.96H40.7511ZM42.7956 14.2483C44.0388 15.2429 45.4092 15.488 46.3991 15.488V5.488C46.989 5.488 48.0394 5.6371 49.0426 6.43966L42.7956 14.2483ZM46.3991 15.488C47.5048 15.488 48.6024 15.1845 49.5731 14.5714L44.2331 6.11655C44.8998 5.6955 45.6614 5.488 46.3991 5.488V15.488ZM49.628 14.5362C50.9112 13.7022 51.6364 12.5196 51.9945 11.4451L42.5077 8.28286C42.7218 7.64039 43.215 6.77783 44.1782 6.15178L49.628 14.5362ZM42.6625 11.8501L43.0105 12.6541L52.1877 8.68188L51.8397 7.87788L42.6625 11.8501ZM42.7089 9.62583C42.7534 9.4169 42.8536 9.09028 43.0769 8.7207C43.3081 8.33822 43.6304 7.97887 44.0329 7.69133L49.8453 15.8287C51.4003 14.718 52.1822 13.1512 52.4893 11.7102L42.7089 9.62583ZM44.0329 7.69133C44.8104 7.13598 45.4912 7.12 45.5831 7.12V17.12C46.811 17.12 48.3958 16.864 49.8453 15.8287L44.0329 7.69133ZM52.1912 11.472L48.9029 15.2386C48.9143 15.2485 48.9257 15.2584 48.9372 15.2683L52.1912 11.472ZM51.4352 3.96V-1.04C48.6737 -1.04 46.4352 1.19858 46.4352 3.96L51.4352 3.96ZM54.1472 3.96H59.1472C59.1472 1.19858 56.9086 -1.04 54.1472 -1.04V3.96ZM54.3032 9.9L50.6392 13.3023C50.6812 13.3475 50.724 13.3919 50.7676 13.4355L54.3032 9.9ZM55.3232 9.888L60.0513 8.26176C59.5442 6.78739 58.3783 5.63396 56.8986 5.14269C55.4189 4.65142 53.7947 4.87854 52.5065 5.75686L55.3232 9.888ZM55.9712 11.772L58.4698 16.1029C60.543 14.9068 61.4778 12.4092 60.6993 10.1458L55.9712 11.772ZM55.2152 12.036L54.2857 7.12315C54.2774 7.12472 54.2691 7.12631 54.2608 7.12792L55.2152 12.036ZM50.5352 7.776H45.5352C45.5352 10.5374 47.7737 12.776 50.5352 12.776V7.776ZM50.5352 5.796V0.796C47.7737 0.796 45.5352 3.03458 45.5352 5.796L50.5352 5.796ZM55.4912 5.796H60.4912C60.4912 3.03458 58.2526 0.796 55.4912 0.796V5.796ZM55.4912 7.776V12.776C58.2526 12.776 60.4912 10.5374 60.4912 7.776L55.4912 7.776ZM54.3032 7.12C54.1597 7.12 54.7609 7.08925 55.4451 7.67572L48.9372 15.2683C50.6294 16.7188 52.6386 17.12 54.3032 17.12V7.12ZM55.4794 7.70542C55.8963 8.06934 56.1628 8.50101 56.3058 8.88238C56.3723 9.05959 56.4042 9.2044 56.4197 9.30104C56.435 9.39677 56.4352 9.45172 56.4352 9.456H46.4352C46.4352 11.2709 46.9655 13.5473 48.9029 15.2386L55.4794 7.70542ZM56.4352 9.456V3.96H46.4352V9.456H56.4352ZM51.4352 8.96H54.1472V-1.04H51.4352V8.96ZM49.1472 3.96V9.432H59.1472V3.96H49.1472ZM49.1472 9.432C49.1472 10.4936 49.438 12.0087 50.6392 13.3023L57.9671 6.49775C58.9603 7.5673 59.1472 8.77042 59.1472 9.432H49.1472ZM50.7676 13.4355C51.828 14.4959 53.2402 15.068 54.7112 15.068V5.068C55.2265 5.068 55.8058 5.16086 56.3929 5.40261C56.981 5.64477 57.4642 5.98995 57.8387 6.36447L50.7676 13.4355ZM54.7112 15.068C55.8543 15.068 57.0594 14.7558 58.1398 14.0191L52.5065 5.75686C53.235 5.26017 54.032 5.068 54.7112 5.068V15.068ZM50.595 11.5142L51.243 13.3982L60.6993 10.1458L60.0513 8.26176L50.595 11.5142ZM53.4725 7.44107C53.8571 7.21923 54.1642 7.14614 54.2857 7.12315L56.1446 16.9489C56.8582 16.8139 57.6692 16.5648 58.4698 16.1029L53.4725 7.44107ZM54.2608 7.12792C54.3141 7.11756 54.3314 7.12 54.3032 7.12V17.12C54.9149 17.12 55.5402 17.0664 56.1695 16.9441L54.2608 7.12792ZM55.5352 7.776V5.796H45.5352V7.776H55.5352ZM50.5352 10.796H55.4912V0.796H50.5352V10.796ZM50.4912 5.796V7.776H60.4912V5.796H50.4912ZM55.4912 2.776H50.5352V12.776H55.4912V2.776ZM56.6547 12H51.6547C51.6547 14.7614 53.8933 17 56.6547 17V12ZM56.6547 5.436V0.435999C53.8933 0.435999 51.6547 2.67458 51.6547 5.436L56.6547 5.436ZM59.3667 5.436H64.3667C64.3667 2.67458 62.1281 0.435999 59.3667 0.435999V5.436ZM59.3667 12V17C62.1281 17 64.3667 14.7614 64.3667 12L59.3667 12ZM56.8227 4.512L60.1508 0.780522L60.1508 0.780522L56.8227 4.512ZM56.8227 2.544L60.1508 6.27548L60.1508 6.27548L56.8227 2.544ZM59.1987 2.52L55.9876 6.3526L55.9876 6.3526L59.1987 2.52ZM59.1987 4.512L62.5268 8.24348C62.5452 8.227 62.5636 8.21039 62.5818 8.19364L59.1987 4.512ZM61.6547 12V5.436H51.6547V12H61.6547ZM56.6547 10.436H59.3667V0.435999H56.6547V10.436ZM54.3667 5.436V12H64.3667V5.436H54.3667ZM59.3667 7H56.6547V17H59.3667V7ZM58.0107 -0.0920002C58.4228 -0.0920002 59.3175 0.0373814 60.1508 0.780522L53.4946 8.24348C54.9198 9.51462 56.6065 9.908 58.0107 9.908V-0.0920002ZM60.1508 0.780522C60.4715 1.06663 60.805 1.47468 61.0472 2.01156C61.2901 2.54988 61.3787 3.07899 61.3787 3.528H51.3787C51.3787 5.36441 52.1493 7.04361 53.4946 8.24348L60.1508 0.780522ZM61.3787 3.528C61.3787 3.97701 61.2901 4.50612 61.0472 5.04444C60.805 5.58132 60.4715 5.98937 60.1508 6.27548L53.4946 -1.18748C52.1493 0.0123861 51.3787 1.69159 51.3787 3.528H61.3787ZM60.1508 6.27548C59.3175 7.01862 58.4228 7.148 58.0107 7.148V-2.852C56.6065 -2.852 54.9198 -2.45862 53.4946 -1.18748L60.1508 6.27548ZM58.0107 7.148C57.6732 7.148 56.8222 7.05191 55.9876 6.3526L62.4098 -1.3126C60.9831 -2.50791 59.3402 -2.852 58.0107 -2.852V7.148ZM55.9876 6.3526C55.6254 6.04916 55.2573 5.61514 54.9936 5.04489C54.7308 4.47672 54.6427 3.92718 54.6427 3.48H64.6427C64.6427 1.63461 63.8593 -0.0981065 62.4098 -1.3126L55.9876 6.3526ZM54.6427 3.48C54.6427 3.08407 54.7159 2.592 54.9387 2.07396C55.1633 1.55191 55.4833 1.13571 55.8156 0.830364L62.5818 8.19364C63.9482 6.93804 64.6427 5.24019 64.6427 3.48H54.6427ZM55.8706 0.780522C56.7038 0.0373813 57.5985 -0.0920002 58.0107 -0.0920002V9.908C59.4148 9.908 61.1015 9.51462 62.5268 8.24348L55.8706 0.780522ZM62.0568 11.688L59.7461 16.122C59.7708 16.1349 59.7957 16.1476 59.8207 16.1601L62.0568 11.688ZM60.7128 10.476L56.5026 13.1731L56.5026 13.1731L60.7128 10.476ZM60.7128 6.948L56.5026 4.25086L56.5026 4.25086L60.7128 6.948ZM62.0568 5.748L59.8207 1.27586C59.8123 1.28005 59.8039 1.28426 59.7956 1.2885L62.0568 5.748ZM66.0168 5.748L63.7807 10.2201L63.7807 10.2201L66.0168 5.748ZM67.3608 6.948L63.1208 9.598C63.1306 9.61376 63.1406 9.62948 63.1506 9.64513L67.3608 6.948ZM67.3608 10.476L63.1506 7.77887C63.1406 7.79452 63.1306 7.81024 63.1208 7.826L67.3608 10.476ZM66.0168 11.688L68.2528 16.1601C68.2693 16.1519 68.2857 16.1436 68.3021 16.1352L66.0168 11.688ZM64.5768 9.864L62.0043 5.57654L62.0043 5.57654L64.5768 9.864ZM64.9608 9.432L69.4329 11.6681C69.4449 11.644 69.4567 11.6199 69.4684 11.5957L64.9608 9.432ZM64.9608 8.004L60.4886 10.2401C60.5015 10.2658 60.5145 10.2914 60.5278 10.3168L64.9608 8.004ZM64.5768 7.572L62.0043 11.8595L62.0043 11.8595L64.5768 7.572ZM63.4967 7.572L60.9243 3.28453L60.9243 3.28454L63.4967 7.572ZM63.1128 8.004L67.5457 10.3168C67.559 10.2914 67.572 10.2658 67.5849 10.2401L63.1128 8.004ZM63.1128 9.432L58.6051 11.5957C58.6168 11.6199 58.6286 11.644 58.6406 11.6681L63.1128 9.432ZM63.4967 9.864L60.9243 14.1515L60.9243 14.1515L63.4967 9.864ZM64.0368 7.12C63.9874 7.12 63.9962 7.11527 64.0496 7.12692C64.1054 7.13911 64.1917 7.16528 64.2928 7.21586L59.8207 16.1601C61.1914 16.8455 62.6372 17.12 64.0368 17.12V7.12ZM64.3674 7.25396C64.4354 7.28937 64.5344 7.35171 64.6432 7.44983C64.7531 7.54895 64.8482 7.66229 64.9229 7.77886L56.5026 13.1731C57.3267 14.4596 58.4471 15.4451 59.7461 16.122L64.3674 7.25396ZM64.9229 7.77887C65.0282 7.94318 65.1089 8.12472 65.1599 8.30771C65.2101 8.48754 65.2208 8.62948 65.2208 8.712H55.2208C55.2208 10.2406 55.6117 11.7824 56.5026 13.1731L64.9229 7.77887ZM65.2208 8.712C65.2208 8.79452 65.2101 8.93646 65.1599 9.11629C65.1089 9.29928 65.0282 9.48082 64.9229 9.64513L56.5026 4.25086C55.6117 5.64158 55.2208 7.18336 55.2208 8.712H65.2208ZM64.9229 9.64514C64.8449 9.7669 64.744 9.88731 64.6248 9.99369C64.5067 10.0991 64.3971 10.1674 64.3179 10.2075L59.7956 1.2885C58.4717 1.95978 57.3347 2.95193 56.5026 4.25086L64.9229 9.64514ZM64.2928 10.2201C64.1917 10.2707 64.1054 10.2969 64.0496 10.3091C63.9962 10.3207 63.9874 10.316 64.0368 10.316V0.316C62.6372 0.316 61.1914 0.590501 59.8207 1.27586L64.2928 10.2201ZM64.0368 10.316C64.0861 10.316 64.0773 10.3207 64.0239 10.3091C63.9681 10.2969 63.8818 10.2707 63.7807 10.2201L68.2528 1.27586C66.8821 0.590502 65.4363 0.316 64.0368 0.316V10.316ZM63.7807 10.2201C63.7012 10.1804 63.5838 10.109 63.4547 9.99369C63.3239 9.87695 63.2101 9.74096 63.1208 9.598L71.6007 4.298C70.7604 2.95343 69.5946 1.94677 68.2528 1.27586L63.7807 10.2201ZM63.1506 9.64513C63.0453 9.48082 62.9646 9.29928 62.9136 9.11629C62.8634 8.93646 62.8528 8.79452 62.8528 8.712H72.8528C72.8528 7.18336 72.4618 5.64158 71.5709 4.25087L63.1506 9.64513ZM62.8528 8.712C62.8528 8.62948 62.8634 8.48754 62.9136 8.30771C62.9646 8.12472 63.0453 7.94318 63.1506 7.77887L71.5709 13.1731C72.4618 11.7824 72.8528 10.2406 72.8528 8.712H62.8528ZM63.1208 7.826C63.2069 7.68824 63.3148 7.55934 63.4363 7.44983C63.5561 7.34179 63.6629 7.27606 63.7314 7.24084L68.3021 16.1352C69.6193 15.4582 70.7683 14.4578 71.6007 13.126L63.1208 7.826ZM63.7807 7.21586C63.8818 7.16528 63.9681 7.13911 64.0239 7.12692C64.0773 7.11527 64.0861 7.12 64.0368 7.12V17.12C65.4363 17.12 66.8821 16.8455 68.2528 16.1601L63.7807 7.21586ZM64.0368 15.008C65.0754 15.008 66.1562 14.7473 67.1492 14.1515L62.0043 5.57654C62.6773 5.17269 63.3981 5.008 64.0368 5.008V15.008ZM67.1492 14.1515C68.2417 13.496 68.9771 12.5797 69.4329 11.6681L60.4886 7.19593C60.7524 6.66833 61.2318 6.04 62.0043 5.57654L67.1492 14.1515ZM69.4684 11.5957C69.962 10.5673 70.1048 9.55032 70.1048 8.712H60.1048C60.1048 8.43368 60.1515 7.89665 60.4531 7.26834L69.4684 11.5957ZM70.1048 8.712C70.1048 7.91385 69.9783 6.81163 69.3937 5.69117L60.5278 10.3168C60.1352 9.56437 60.1048 8.93415 60.1048 8.712H70.1048ZM69.4329 5.76793C68.9771 4.85633 68.2417 3.94 67.1492 3.28453L62.0043 11.8595C61.2318 11.396 60.7524 10.7677 60.4886 10.2401L69.4329 5.76793ZM67.1492 3.28454C66.1562 2.68869 65.0754 2.428 64.0368 2.428V12.428C63.3981 12.428 62.6773 12.2633 62.0043 11.8595L67.1492 3.28454ZM64.0368 2.428C62.9981 2.428 61.9173 2.68869 60.9243 3.28453L66.0692 11.8595C65.3962 12.2633 64.6754 12.428 64.0368 12.428V2.428ZM60.9243 3.28454C59.8318 3.94 59.0964 4.85633 58.6406 5.76793L67.5849 10.2401C67.3211 10.7677 66.8417 11.396 66.0692 11.8595L60.9243 3.28454ZM58.6798 5.69117C58.0952 6.81163 57.9688 7.91385 57.9688 8.712H67.9688C67.9688 8.93415 67.9383 9.56437 67.5457 10.3168L58.6798 5.69117ZM57.9688 8.712C57.9688 9.55032 58.1115 10.5673 58.6051 11.5957L67.6204 7.26834C67.922 7.89665 67.9688 8.43368 67.9688 8.712H57.9688ZM58.6406 11.6681C59.0964 12.5797 59.8318 13.496 60.9243 14.1515L66.0692 5.57654C66.8417 6.04 67.3211 6.66833 67.5849 7.19593L58.6406 11.6681ZM60.9243 14.1515C61.9173 14.7473 62.9981 15.008 64.0368 15.008V5.008C64.6754 5.008 65.3962 5.17269 66.0692 5.57653L60.9243 14.1515ZM74.6296 5.628L72.3586 10.0825C72.3819 10.0944 72.4053 10.1061 72.4288 10.1176L74.6296 5.628ZM75.5896 6.576L71.1846 8.94163C71.1958 8.96257 71.2072 8.98344 71.2188 9.00422L75.5896 6.576ZM75.9496 12V17C78.711 17 80.9496 14.7614 80.9496 12L75.9496 12ZM73.2376 12H68.2376C68.2376 14.7614 70.4761 17 73.2376 17V12ZM73.0216 7.86L69.1518 11.0262C69.1759 11.0557 69.2004 11.085 69.2253 11.114L73.0216 7.86ZM71.9176 7.728L74.2463 12.1526C74.2734 12.1383 74.3003 12.1238 74.3272 12.1091L71.9176 7.728ZM71.5456 8.136L67.0734 5.89993C67.0482 5.95044 67.0238 6.00139 67.0002 6.05273L71.5456 8.136ZM71.4136 12V17C74.175 17 76.4136 14.7614 76.4136 12L71.4136 12ZM68.7016 12H63.7016C63.7016 14.7614 65.9401 17 68.7016 17V12ZM68.7016 5.436V0.435999C65.9401 0.435999 63.7016 2.67458 63.7016 5.436L68.7016 5.436ZM71.2816 5.436H76.2816C76.2816 2.67458 74.043 0.435999 71.2816 0.435999V5.436ZM71.2816 7.356L67.6289 10.7704C69.0309 12.2702 71.2072 12.7606 73.1169 12.007C75.0266 11.2534 76.2816 9.40901 76.2816 7.356L71.2816 7.356ZM70.7656 6.804L66.3225 4.51079C65.353 6.38915 65.6694 8.67423 67.1129 10.2184L70.7656 6.804ZM71.7976 5.688L69.3425 1.33224C69.331 1.33869 69.3196 1.34519 69.3082 1.35173L71.7976 5.688ZM73.2616 10.316C73.0568 10.316 72.7225 10.268 72.3586 10.0825L76.9005 1.17347C75.7207 0.571983 74.4743 0.316 73.2616 0.316V10.316ZM72.4288 10.1176C72.1529 9.98239 71.8906 9.79815 71.6623 9.5727C71.4367 9.34992 71.2835 9.12578 71.1846 8.94163L79.9945 4.21037C79.3093 2.93432 78.2526 1.83556 76.8303 1.1384L72.4288 10.1176ZM71.2188 9.00422C71.0642 8.7259 70.998 8.49594 70.9706 8.36765C70.9438 8.24271 70.9496 8.19624 70.9496 8.256H80.9496C80.9496 7.03453 80.7433 5.55715 79.9603 4.14778L71.2188 9.00422ZM70.9496 8.256V12H80.9496V8.256H70.9496ZM75.9496 7H73.2376V17H75.9496V7ZM78.2376 12V8.724H68.2376V12H78.2376ZM78.2376 8.724C78.2376 8.0128 78.1687 6.18204 76.8178 4.60604L69.2253 11.114C68.6499 10.4426 68.4238 9.7783 68.3329 9.41468C68.2406 9.04558 68.2376 8.78818 68.2376 8.724H78.2376ZM76.8913 4.69381C75.7039 3.24247 74.0265 2.596 72.4336 2.596V12.596C71.9599 12.596 71.3566 12.5098 70.7186 12.2233C70.0682 11.9313 69.5412 11.5022 69.1518 11.0262L76.8913 4.69381ZM72.4336 2.596C71.4138 2.596 70.4121 2.84966 69.508 3.34692L74.3272 12.1091C73.743 12.4303 73.0853 12.596 72.4336 12.596V2.596ZM69.5888 3.30341C68.302 3.98067 67.5193 5.00816 67.0734 5.89993L76.0177 10.3721C75.7638 10.8798 75.2291 11.6353 74.2463 12.1526L69.5888 3.30341ZM67.0002 6.05273C66.4929 7.15959 66.4136 8.22606 66.4136 8.916H76.4136C76.4136 8.96716 76.4108 9.10669 76.3765 9.30929C76.3427 9.50872 76.2677 9.83343 76.0909 10.2193L67.0002 6.05273ZM66.4136 8.916V12H76.4136V8.916H66.4136ZM71.4136 7H68.7016V17H71.4136V7ZM73.7016 12V5.436H63.7016V12H73.7016ZM68.7016 10.436H71.2816V0.435999H68.7016V10.436ZM66.2816 5.436V7.356H76.2816V5.436H66.2816ZM74.9342 3.94158L74.4182 3.38958L67.1129 10.2184L67.6289 10.7704L74.9342 3.94158ZM75.2087 9.09721C75.0784 9.3496 74.7872 9.73705 74.2869 10.0243L69.3082 1.35173C67.9439 2.13495 66.9647 3.2664 66.3225 4.51079L75.2087 9.09721ZM74.2526 10.0438C74.0894 10.1358 73.91 10.208 73.7249 10.255C73.5414 10.3016 73.3821 10.316 73.2616 10.316V0.316C71.9199 0.316 70.5779 0.635911 69.3425 1.33224L74.2526 10.0438ZM14.018 27H9.01798C9.01798 29.7614 11.2566 32 14.018 32L14.018 27ZM14.018 18.6V13.6C11.2566 13.6 9.01798 15.8386 9.01798 18.6H14.018ZM20.63 19.116L18.4548 23.6181C18.4686 23.6247 18.4823 23.6313 18.4961 23.6378L20.63 19.116ZM22.298 20.556L18.0886 23.2543L18.0886 23.2543L22.298 20.556ZM22.298 25.044L26.5074 27.7423C26.5126 27.7342 26.5177 27.7261 26.5229 27.718L22.298 25.044ZM20.63 26.496L22.7639 31.0178C22.7777 31.0113 22.7914 31.0047 22.8051 30.9981L20.63 26.496ZM16.85 24.792H11.85C11.85 27.5534 14.0886 29.792 16.85 29.792V24.792ZM19.082 24.564L16.8459 20.0919C16.8299 20.0999 16.8139 20.108 16.798 20.1162L19.082 24.564ZM19.79 23.892L24.1384 26.36C24.1478 26.3435 24.157 26.327 24.1662 26.3104L19.79 23.892ZM19.79 21.708L24.1384 19.24L24.1384 19.24L19.79 21.708ZM19.082 21.036L16.798 25.4838C16.8139 25.492 16.8299 25.5001 16.8459 25.5081L19.082 21.036ZM16.85 20.808V15.808C14.0886 15.808 11.85 18.0466 11.85 20.808H16.85ZM19.018 27V18.6H9.01798V27H19.018ZM14.018 23.6H18.158V13.6H14.018V23.6ZM18.158 23.6C18.3204 23.6 18.4153 23.6149 18.4563 23.6235C18.4949 23.6316 18.4887 23.6345 18.4548 23.6181L22.8051 14.6139C21.3013 13.8873 19.7101 13.6 18.158 13.6V23.6ZM18.4961 23.6378C18.4719 23.6264 18.402 23.589 18.3136 23.5127C18.2235 23.435 18.1462 23.3442 18.0886 23.2543L26.5074 17.8577C25.5686 16.3931 24.27 15.305 22.7639 14.5942L18.4961 23.6378ZM18.0886 23.2543C18.0007 23.1173 17.9474 22.9841 17.9194 22.88C17.8928 22.781 17.898 22.742 17.898 22.788H27.898C27.898 21.1291 27.5044 19.413 26.5074 17.8577L18.0886 23.2543ZM17.898 22.788C17.898 22.8416 17.892 22.8111 17.916 22.7209C17.9413 22.6257 17.9905 22.5005 18.0731 22.37L26.5229 27.718C27.5084 26.1608 27.898 24.4468 27.898 22.788H17.898ZM18.0886 22.3457C18.1435 22.2601 18.2159 22.1753 18.2981 22.1037C18.3786 22.0336 18.4397 22.0012 18.4548 21.9939L22.8051 30.9981C24.2909 30.2802 25.5753 29.1964 26.5074 27.7423L18.0886 22.3457ZM18.4961 21.9742C18.5657 21.9414 18.4939 22 18.158 22V32C19.6941 32 21.2703 31.7226 22.7639 31.0178L18.4961 21.9742ZM18.158 22H14.018V32H18.158V22ZM16.85 29.792H18.038V19.792H16.85V29.792ZM18.038 29.792C19.0732 29.792 20.2342 29.593 21.366 29.0118L16.798 20.1162C17.3378 19.839 17.8027 19.792 18.038 19.792V29.792ZM21.3181 29.0361C22.5107 28.4398 23.4814 27.5176 24.1384 26.36L15.4416 21.424C15.7625 20.8584 16.2613 20.3842 16.8459 20.0919L21.3181 29.0361ZM24.1662 26.3104C24.8316 25.1064 25.042 23.8626 25.042 22.788H15.042C15.042 22.5774 15.0844 22.0696 15.4138 21.4736L24.1662 26.3104ZM25.042 22.788C25.042 21.7088 24.8264 20.4521 24.1384 19.24L15.4416 24.176C15.0896 23.5559 15.042 23.0192 15.042 22.788H25.042ZM24.1384 19.24C23.4814 18.0824 22.5107 17.1602 21.3181 16.5639L16.8459 25.5081C16.2613 25.2158 15.7625 24.7416 15.4416 24.176L24.1384 19.24ZM21.366 16.5882C20.2342 16.007 19.0733 15.808 18.038 15.808V25.808C17.8027 25.808 17.3378 25.761 16.798 25.4838L21.366 16.5882ZM18.038 15.808H16.85V25.808H18.038V15.808ZM11.85 20.808V24.792H21.85V20.808H11.85ZM25.372 26.676L23.136 31.1481C23.144 31.1521 23.1519 31.1561 23.1599 31.16L25.372 26.676ZM23.992 25.464L19.7631 28.1315C19.7693 28.1414 19.7756 28.1513 19.7819 28.1611L23.992 25.464ZM23.98 21.948L19.7699 19.2509C19.7599 19.2665 19.7499 19.2822 19.7401 19.298L23.98 21.948ZM25.312 20.748L23.0509 16.2885C23.0423 16.2928 23.0338 16.2972 23.0253 16.3016L25.312 20.748ZM29.008 20.7L26.8791 25.2241C26.8875 25.2281 26.896 25.232 26.9044 25.2359L29.008 20.7ZM30.328 21.84L26.1373 24.5673C26.1474 24.5827 26.1576 24.5981 26.1678 24.6135L30.328 21.84ZM30.82 24.036L35.8073 24.3922C35.8079 24.3844 35.8084 24.3765 35.809 24.3686L30.82 24.036ZM30.796 24.348V29.348C33.3965 29.348 35.5628 27.3547 35.7788 24.7632L30.796 24.348ZM25.744 24.348H20.744C20.744 27.1094 22.9826 29.348 25.744 29.348V24.348ZM25.744 23.04V18.04C22.9826 18.04 20.744 20.2786 20.744 23.04H25.744ZM29.356 23.04L30.9705 27.7722C33.2852 26.9825 34.6889 24.6344 34.2886 22.2217C33.8884 19.8091 31.8017 18.04 29.356 18.04V23.04ZM28.336 23.388H23.336C23.336 25.0014 24.1146 26.5157 25.4268 27.4545C26.739 28.3933 28.4235 28.6411 29.9505 28.1202L28.336 23.388ZM28.192 22.74L23.6814 24.8973C23.7197 24.9773 23.7601 25.0564 23.8026 25.1343L28.192 22.74ZM27.82 22.32L25.0951 26.5122C25.1453 26.5449 25.1962 26.5766 25.2476 26.6075L27.82 22.32ZM26.656 22.32L29.2285 26.6075C29.2484 26.5956 29.2681 26.5835 29.2878 26.5713L26.656 22.32ZM26.284 22.74L30.7562 24.9761C30.7693 24.9499 30.7821 24.9237 30.7947 24.8973L26.284 22.74ZM26.32 24.516L30.6826 22.073L30.6826 22.073L26.32 24.516ZM26.8 24.972L24.564 29.4441C24.6105 29.4674 24.6575 29.49 24.7048 29.5118L26.8 24.972ZM28.3 24.996L26.4431 20.3536C26.421 20.3625 26.3989 20.3715 26.377 20.3806L28.3 24.996ZM28.924 24.636L32.4745 21.1154C30.7248 19.3509 27.9447 19.1391 25.9479 20.6182L28.924 24.636ZM30.34 26.064L34.001 29.4695C35.8284 27.5051 35.7796 24.4485 33.8905 22.5434L30.34 26.064ZM29.152 26.856L30.9253 31.531C30.9396 31.5256 30.9539 31.5201 30.9681 31.5145L29.152 26.856ZM27.472 22.12C27.3794 22.12 27.3541 22.1114 27.3813 22.1171C27.4113 22.1235 27.4851 22.1431 27.5842 22.192L23.1599 31.16C24.5699 31.8556 26.0535 32.12 27.472 32.12V22.12ZM27.6081 22.2039C27.6649 22.2323 27.7653 22.2912 27.8825 22.3942C28.0017 22.4989 28.112 22.626 28.2022 22.7669L19.7819 28.1611C20.6386 29.4984 21.8117 30.486 23.136 31.1481L27.6081 22.2039ZM28.221 22.7965C28.3109 22.9389 28.3866 23.1054 28.4368 23.2842C28.4865 23.4611 28.5 23.6101 28.5 23.712H18.5C18.5 25.2507 18.9036 26.769 19.7631 28.1315L28.221 22.7965ZM28.5 23.712C28.5 23.7841 28.491 23.9155 28.4446 24.0858C28.3974 24.2593 28.3217 24.4354 28.22 24.598L19.7401 19.298C18.8745 20.6829 18.5 22.2076 18.5 23.712H28.5ZM28.1902 24.6451C28.1174 24.7588 28.0215 24.8745 27.9057 24.9788C27.7907 25.0824 27.6816 25.1519 27.5988 25.1944L23.0253 16.3016C21.7103 16.9778 20.591 17.9692 19.7699 19.2509L28.1902 24.6451ZM27.5732 25.2075C27.4814 25.254 27.3929 25.2839 27.3192 25.3006C27.2474 25.3168 27.2103 25.316 27.22 25.316V15.316C25.8144 15.316 24.391 15.609 23.0509 16.2885L27.5732 25.2075ZM27.22 25.316C27.2132 25.316 27.1711 25.3151 27.1032 25.3005C27.034 25.2857 26.9565 25.2605 26.8791 25.2241L31.137 16.1759C29.8763 15.5826 28.5458 15.316 27.22 15.316V25.316ZM26.9044 25.2359C26.7789 25.1777 26.6314 25.0884 26.4839 24.9611C26.3362 24.8335 26.2208 24.6956 26.1373 24.5673L34.5187 19.1127C33.6723 17.812 32.5047 16.8101 31.1117 16.1641L26.9044 25.2359ZM26.1678 24.6135C25.8426 24.1257 25.832 23.7281 25.832 23.712H35.832C35.832 22.2079 35.4855 20.5623 34.4883 19.0665L26.1678 24.6135ZM25.832 23.712C25.832 23.6912 25.8325 23.6801 25.8325 23.6799C25.8325 23.6796 25.8322 23.6872 25.8311 23.7034L35.809 24.3686C35.8226 24.1641 35.832 23.9425 35.832 23.712H25.832ZM25.8328 23.6798C25.8259 23.7752 25.8194 23.8593 25.8133 23.9328L35.7788 24.7632C35.7887 24.6447 35.7982 24.5208 35.8073 24.3922L25.8328 23.6798ZM30.796 19.348H25.744V29.348H30.796V19.348ZM30.744 24.348V23.04H20.744V24.348H30.744ZM25.744 28.04H29.356V18.04H25.744V28.04ZM27.7415 18.3078L26.7215 18.6558L29.9505 28.1202L30.9705 27.7722L27.7415 18.3078ZM33.336 23.388C33.336 22.5216 33.174 21.432 32.5815 20.3457L23.8026 25.1343C23.402 24.4 23.336 23.7424 23.336 23.388H33.336ZM32.7027 20.5827C32.2326 19.5998 31.4716 18.68 30.3925 18.0325L25.2476 26.6075C24.4885 26.152 23.9755 25.5122 23.6814 24.8973L32.7027 20.5827ZM30.545 18.1278C29.4413 17.4104 28.264 17.164 27.244 17.164V27.164C26.6721 27.164 25.8788 27.0216 25.0951 26.5122L30.545 18.1278ZM27.244 17.164C26.2176 17.164 25.0846 17.4123 24.0243 18.0687L29.2878 26.5713C28.5635 27.0197 27.8225 27.164 27.244 27.164V17.164ZM24.0836 18.0325C23.0045 18.68 22.2435 19.5998 21.7734 20.5827L30.7947 24.8973C30.5006 25.5122 29.9876 26.152 29.2285 26.6075L24.0836 18.0325ZM21.8119 20.5039C21.2884 21.5509 21.152 22.581 21.152 23.388H31.152C31.152 23.683 31.1037 24.2811 30.7562 24.9761L21.8119 20.5039ZM21.152 23.388V23.796H31.152V23.388H21.152ZM21.152 23.796C21.152 24.7433 21.3443 25.8641 21.9575 26.959L30.6826 22.073C31.0718 22.7679 31.152 23.4087 31.152 23.796H21.152ZM21.9575 26.959C22.5666 28.0466 23.4737 28.899 24.564 29.4441L29.0361 20.4999C29.7104 20.837 30.2975 21.3854 30.6826 22.073L21.9575 26.959ZM24.7048 29.5118C25.732 29.9859 26.7397 30.116 27.556 30.116V20.116C27.7804 20.116 28.2841 20.1501 28.8953 20.4322L24.7048 29.5118ZM27.556 30.116C28.2415 30.116 29.2086 30.0341 30.2231 29.6114L26.377 20.3806C26.7083 20.2426 26.988 20.1798 27.1739 20.1498C27.3611 20.1196 27.4948 20.116 27.556 20.116V30.116ZM30.157 29.6384C30.8393 29.3654 31.4207 29.009 31.9002 28.6538L25.9479 20.6182C25.9954 20.583 26.1607 20.4666 26.4431 20.3536L30.157 29.6384ZM25.3736 28.1566L26.7896 29.5846L33.8905 22.5434L32.4745 21.1154L25.3736 28.1566ZM26.6791 22.6585C26.9113 22.4089 27.1625 22.2651 27.336 22.1975L30.9681 31.5145C32.0856 31.0789 33.1288 30.4071 34.001 29.4695L26.6791 22.6585ZM27.3788 22.181C27.5109 22.1309 27.5944 22.1167 27.6079 22.1146C27.6208 22.1126 27.5796 22.12 27.472 22.12V32.12C28.5499 32.12 29.745 31.9787 30.9253 31.531L27.3788 22.181ZM32.5999 26.94L31.5228 31.8226L32.5999 26.94ZM31.2799 26.472L26.6636 24.5511C25.6952 26.8784 26.6106 29.5626 28.7992 30.8132L31.2799 26.472ZM32.0239 24.684L34.5638 20.3772C33.3178 19.6424 31.8147 19.4832 30.4424 19.9407C29.0702 20.3982 27.9633 21.4276 27.4076 22.7631L32.0239 24.684ZM33.1039 25.116L31.8689 29.9611C31.8763 29.963 31.8838 29.9648 31.8912 29.9667L33.1039 25.116ZM34.9759 25.188L32.8615 20.6571C32.8207 20.6761 32.7801 20.6957 32.7398 20.7159L34.9759 25.188ZM34.9519 24.756L33.2878 29.471C33.3715 29.5005 33.4559 29.5278 33.5411 29.5528L34.9519 24.756ZM33.6679 24.564L32.9189 29.5076C32.9737 29.5159 33.0286 29.5233 33.0837 29.5298L33.6679 24.564ZM32.8639 24.396L31.5844 29.2295L31.5844 29.2295L32.8639 24.396ZM32.1199 24.072L29.4161 28.2779L29.4161 28.2779L32.1199 24.072ZM31.5799 23.496L27.1958 25.9002C27.207 25.9205 27.2183 25.9408 27.2298 25.9611L31.5799 23.496ZM31.7479 21.432L27.7707 18.4018C27.7553 18.422 27.7401 18.4423 27.725 18.4627L31.7479 21.432ZM32.8759 20.628L34.7457 25.2652C34.7583 25.2601 34.7708 25.255 34.7833 25.2499L32.8759 20.628ZM36.1759 20.448L35.2742 25.366L35.2743 25.366L36.1759 20.448ZM37.4119 20.856L42.0282 22.7769C43.0171 20.4003 42.04 17.6612 39.7702 16.4471L37.4119 20.856ZM36.6679 22.644L34.2663 27.0295C35.5107 27.7109 36.986 27.8316 38.3246 27.3615C39.6633 26.8914 40.7391 25.8748 41.2842 24.5649L36.6679 22.644ZM35.6719 22.272L34.5743 27.15C34.6209 27.1605 34.6675 27.1703 34.7143 27.1795L35.6719 22.272ZM34.0639 22.26L31.8278 17.7879C31.7886 17.8075 31.7496 17.8276 31.711 17.8482L34.0639 22.26ZM34.0879 22.692L35.752 17.977L35.752 17.977L34.0879 22.692ZM34.6279 22.8L35.1606 17.8285L35.1606 17.8285L34.6279 22.8ZM35.3599 22.896L34.6109 27.8396C34.6657 27.8479 34.7206 27.8553 34.7757 27.8618L35.3599 22.896ZM36.1639 23.064L34.7139 27.8491C34.7704 27.8663 34.8273 27.8824 34.8844 27.8975L36.1639 23.064ZM36.9079 23.388L39.6117 19.1821L39.6117 19.1821L36.9079 23.388ZM37.4479 23.976L33.0638 26.3802C33.075 26.4005 33.0863 26.4208 33.0978 26.4411L37.4479 23.976ZM37.2799 26.004L41.3028 28.9733C41.3138 28.9582 41.3249 28.9432 41.3358 28.928L37.2799 26.004ZM36.1519 26.82L37.9961 31.4675C38.0172 31.4591 38.0383 31.4505 38.0593 31.4419L36.1519 26.82ZM34.2559 22.12C34.0562 22.12 33.8654 22.0989 33.6769 22.0574L31.5228 31.8226C32.4224 32.0211 33.3356 32.12 34.2559 32.12V22.12ZM33.6769 22.0574C33.569 22.0336 33.5257 22.0179 33.5327 22.0204C33.5376 22.0222 33.5602 22.0303 33.5973 22.047C33.6344 22.0636 33.6903 22.0906 33.7606 22.1308L28.7992 30.8132C29.7191 31.3389 30.6831 31.6374 31.5228 31.8226L33.6769 22.0574ZM35.8962 28.3929L36.6402 26.6049L27.4076 22.7631L26.6636 24.5511L35.8962 28.3929ZM29.484 28.9908C30.2631 29.4503 31.0751 29.7587 31.8689 29.9611L34.3389 20.2709C34.3166 20.2653 34.4087 20.2857 34.5638 20.3772L29.484 28.9908ZM31.8912 29.9667C32.667 30.1607 33.4788 30.272 34.3159 30.272V20.272C34.3414 20.272 34.3557 20.2737 34.3572 20.2739C34.3584 20.2741 34.3453 20.2725 34.3166 20.2653L31.8912 29.9667ZM34.3159 30.272C34.6012 30.272 34.9655 30.261 35.3582 30.211C35.6654 30.1719 36.406 30.0631 37.212 29.6601L32.7398 20.7159C33.1269 20.5223 33.4554 20.4255 33.6452 20.3775C33.8469 20.3265 34.0052 20.3025 34.0956 20.291C34.2683 20.269 34.3585 20.272 34.3159 20.272V30.272ZM37.0903 29.7189C38.1895 29.206 40.1559 27.7337 40.1559 24.96H30.1559C30.1559 23.8732 30.5264 22.8269 31.1865 21.9908C31.784 21.234 32.4609 20.844 32.8615 20.6571L37.0903 29.7189ZM40.1559 24.96C40.1559 23.5833 39.6103 22.2713 38.6404 21.3015C37.8002 20.4612 36.8803 20.1114 36.3627 19.9592L33.5411 29.5528C33.1594 29.4406 32.3416 29.1448 31.5694 28.3725C30.6675 27.4707 30.1559 26.2407 30.1559 24.96H40.1559ZM36.616 20.041C35.9697 19.813 35.3647 19.7215 34.9446 19.6765L33.8792 29.6195C33.8732 29.6189 33.8212 29.6133 33.7343 29.5959C33.6516 29.5794 33.4934 29.5435 33.2878 29.471L36.616 20.041ZM34.9446 19.6765C34.7409 19.6546 34.5104 19.6286 34.2521 19.5982L33.0837 29.5298C33.3693 29.5634 33.6349 29.5934 33.8792 29.6195L34.9446 19.6765ZM34.4169 19.6204C34.3408 19.6089 34.2499 19.5907 34.1434 19.5625L31.5844 29.2295C32.0218 29.3453 32.4669 29.4391 32.9189 29.5076L34.4169 19.6204ZM34.1434 19.5625C34.3473 19.6165 34.5843 19.7122 34.8237 19.8661L29.4161 28.2779C30.1035 28.7198 30.8365 29.0315 31.5844 29.2295L34.1434 19.5625ZM34.8237 19.8661C35.3064 20.1764 35.6813 20.592 35.93 21.0309L27.2298 25.9611C27.7505 26.88 28.4854 27.6796 29.4161 28.2779L34.8237 19.8661ZM35.964 21.0918C36.3434 21.7837 36.3759 22.3623 36.3759 22.56H26.3759C26.3759 23.5097 26.5444 24.7123 27.1958 25.9002L35.964 21.0918ZM36.3759 22.56C36.3759 22.8569 36.3303 23.1895 36.2173 23.532C36.1045 23.8742 35.9441 24.1664 35.7708 24.4013L27.725 18.4627C26.845 19.655 26.3759 21.0708 26.3759 22.56H36.3759ZM35.7251 24.4622C35.3087 25.0086 34.865 25.2171 34.7457 25.2652L31.0061 15.9908C29.8948 16.4389 28.6991 17.1834 27.7707 18.4018L35.7251 24.4622ZM34.7833 25.2499C34.6399 25.3091 34.5516 25.3242 34.546 25.3251C34.5423 25.3257 34.5556 25.3233 34.588 25.3209C34.6204 25.3184 34.6692 25.316 34.7359 25.316V15.316C33.5609 15.316 32.2489 15.4777 30.9685 16.0061L34.7833 25.2499ZM34.7359 25.316C34.9085 25.316 35.0867 25.3317 35.2742 25.366L37.0775 15.53C36.3051 15.3883 35.5233 15.316 34.7359 15.316V25.316ZM35.2743 25.366C35.3161 25.3737 35.3142 25.3761 35.2776 25.364C35.2406 25.3518 35.1614 25.3226 35.0536 25.2649L39.7702 16.4471C38.8721 15.9667 37.9445 15.6889 37.0775 15.53L35.2743 25.366ZM32.7956 18.9351L32.0516 20.7231L41.2842 24.5649L42.0282 22.7769L32.7956 18.9351ZM39.0695 18.2585C38.3467 17.8627 37.5305 17.5404 36.6294 17.3645L34.7143 27.1795C34.4692 27.1316 34.3171 27.0573 34.2663 27.0295L39.0695 18.2585ZM36.7695 17.394C36.1489 17.2543 35.4776 17.164 34.7719 17.164V27.164C34.6261 27.164 34.5549 27.1457 34.5743 27.15L36.7695 17.394ZM34.7719 17.164C34.4646 17.164 34.0796 17.1771 33.6651 17.2333C33.314 17.2809 32.6019 17.4008 31.8278 17.7879L36.3 26.7321C35.9464 26.9089 35.6443 27.0028 35.4552 27.0527C35.2584 27.1046 35.1025 27.1299 35.0087 27.1427C34.8302 27.1669 34.7352 27.164 34.7719 27.164V17.164ZM31.711 17.8482C31.1519 18.1464 28.8839 19.5084 28.8839 22.476H38.8839C38.8839 23.8004 38.3539 24.8622 37.77 25.5629C37.2448 26.1932 36.6911 26.5255 36.4168 26.6718L31.711 17.8482ZM28.8839 22.476C28.8839 23.8447 29.42 25.1035 30.2998 26.0351C31.0714 26.852 31.9235 27.2304 32.4238 27.407L35.752 17.977C36.1162 18.1056 36.8664 18.424 37.57 19.1689C38.3818 20.0285 38.8839 21.2033 38.8839 22.476H28.8839ZM32.4238 27.407C33.0701 27.635 33.6751 27.7265 34.0952 27.7715L35.1606 17.8285C35.1665 17.8291 35.2185 17.8347 35.3055 17.8521C35.3882 17.8686 35.5464 17.9045 35.752 17.977L32.4238 27.407ZM34.0952 27.7715C34.2352 27.7865 34.4061 27.8085 34.6109 27.8396L36.1089 17.9524C35.7857 17.9035 35.4686 17.8615 35.1606 17.8285L34.0952 27.7715ZM34.7757 27.8618C34.7522 27.859 34.7305 27.8542 34.7139 27.8491L37.6139 18.2789C37.0693 18.1138 36.5116 17.997 35.9441 17.9302L34.7757 27.8618ZM34.8844 27.8975C34.6805 27.8435 34.4435 27.7478 34.2041 27.5939L39.6117 19.1821C38.9243 18.7402 38.1913 18.4285 37.4434 18.2305L34.8844 27.8975ZM34.2041 27.5939C33.6828 27.2588 33.3032 26.8166 33.0638 26.3802L41.832 21.5718C41.3206 20.6394 40.5809 19.8052 39.6117 19.1821L34.2041 27.5939ZM33.0978 26.4411C32.6808 25.7052 32.6519 25.0876 32.6519 24.9H42.6519C42.6519 23.9604 42.487 22.7268 41.798 21.5109L33.0978 26.4411ZM32.6519 24.9C32.6519 24.1552 32.9112 23.5139 33.224 23.08L41.3358 28.928C42.1446 27.8061 42.6519 26.4288 42.6519 24.9H32.6519ZM33.257 23.0347C33.692 22.4454 34.1576 22.234 34.2445 22.1981L38.0593 31.4419C39.1542 30.99 40.3718 30.2346 41.3028 28.9733L33.257 23.0347ZM34.3077 22.1725C34.3815 22.1432 34.4383 22.1262 34.4732 22.117C34.5081 22.1078 34.5243 22.1055 34.5185 22.1064C34.5127 22.1074 34.4885 22.1109 34.4436 22.1141C34.3988 22.1173 34.3368 22.12 34.2559 22.12V32.12C35.4124 32.12 36.7204 31.9737 37.9961 31.4675L34.3077 22.1725ZM39.997 26.676L37.761 31.1481C37.769 31.1521 37.7769 31.1561 37.7849 31.16L39.997 26.676ZM38.617 25.464L34.3881 28.1315C34.3943 28.1414 34.4006 28.1513 34.4069 28.1611L38.617 25.464ZM38.605 21.948L34.3949 19.2509C34.3849 19.2665 34.3749 19.2822 34.3651 19.298L38.605 21.948ZM39.937 20.748L37.6759 16.2885C37.6673 16.2928 37.6588 16.2972 37.6503 16.3016L39.937 20.748ZM43.633 20.7L41.5041 25.2241C41.5125 25.2281 41.521 25.232 41.5294 25.2359L43.633 20.7ZM44.953 21.84L40.7623 24.5673C40.7724 24.5827 40.7826 24.5981 40.7928 24.6135L44.953 21.84ZM45.445 24.036L50.4323 24.3922C50.4329 24.3844 50.4334 24.3765 50.434 24.3686L45.445 24.036ZM45.421 24.348V29.348C48.0215 29.348 50.1878 27.3547 50.4038 24.7632L45.421 24.348ZM40.369 24.348H35.369C35.369 27.1094 37.6076 29.348 40.369 29.348V24.348ZM40.369 23.04V18.04C37.6076 18.04 35.369 20.2786 35.369 23.04H40.369ZM43.981 23.04L45.5955 27.7722C47.9102 26.9825 49.3139 24.6344 48.9136 22.2217C48.5134 19.8091 46.4267 18.04 43.981 18.04V23.04ZM42.961 23.388H37.961C37.961 25.0014 38.7396 26.5157 40.0518 27.4545C41.364 28.3933 43.0485 28.6411 44.5755 28.1202L42.961 23.388ZM42.817 22.74L38.3064 24.8973C38.3447 24.9773 38.3851 25.0564 38.4276 25.1343L42.817 22.74ZM42.445 22.32L39.7201 26.5122C39.7703 26.5449 39.8212 26.5766 39.8726 26.6075L42.445 22.32ZM41.281 22.32L43.8535 26.6075C43.8734 26.5956 43.8931 26.5835 43.9128 26.5713L41.281 22.32ZM40.909 22.74L45.3812 24.9761C45.3943 24.9499 45.4071 24.9237 45.4197 24.8973L40.909 22.74ZM40.945 24.516L45.3076 22.073L45.3076 22.073L40.945 24.516ZM41.425 24.972L39.189 29.4441C39.2355 29.4674 39.2825 29.49 39.3298 29.5118L41.425 24.972ZM42.925 24.996L41.0681 20.3536C41.046 20.3625 41.0239 20.3715 41.002 20.3806L42.925 24.996ZM43.549 24.636L47.0995 21.1154C45.3498 19.3509 42.5697 19.1391 40.5729 20.6182L43.549 24.636ZM44.965 26.064L48.626 29.4695C50.4534 27.5051 50.4046 24.4485 48.5155 22.5434L44.965 26.064ZM43.777 26.856L45.5503 31.531C45.5646 31.5256 45.5789 31.5201 45.5931 31.5145L43.777 26.856ZM42.097 22.12C42.0044 22.12 41.9791 22.1114 42.0063 22.1171C42.0363 22.1235 42.1101 22.1431 42.2092 22.192L37.7849 31.16C39.1949 31.8556 40.6785 32.12 42.097 32.12V22.12ZM42.2331 22.2039C42.2899 22.2323 42.3903 22.2912 42.5075 22.3942C42.6267 22.4989 42.737 22.626 42.8272 22.7669L34.4069 28.1611C35.2636 29.4984 36.4367 30.486 37.761 31.1481L42.2331 22.2039ZM42.846 22.7965C42.9359 22.9389 43.0116 23.1054 43.0618 23.2842C43.1115 23.4611 43.125 23.6101 43.125 23.712H33.125C33.125 25.2507 33.5286 26.769 34.3881 28.1315L42.846 22.7965ZM43.125 23.712C43.125 23.7841 43.116 23.9155 43.0696 24.0858C43.0224 24.2593 42.9467 24.4354 42.845 24.598L34.3651 19.298C33.4995 20.6829 33.125 22.2076 33.125 23.712H43.125ZM42.8152 24.6451C42.7424 24.7588 42.6465 24.8745 42.5307 24.9788C42.4157 25.0824 42.3066 25.1519 42.2238 25.1944L37.6503 16.3016C36.3353 16.9778 35.216 17.9692 34.3949 19.2509L42.8152 24.6451ZM42.1982 25.2075C42.1064 25.254 42.0179 25.2839 41.9442 25.3006C41.8724 25.3168 41.8353 25.316 41.845 25.316V15.316C40.4394 15.316 39.016 15.609 37.6759 16.2885L42.1982 25.2075ZM41.845 25.316C41.8382 25.316 41.7961 25.3151 41.7282 25.3005C41.659 25.2857 41.5815 25.2605 41.5041 25.2241L45.762 16.1759C44.5013 15.5826 43.1708 15.316 41.845 15.316V25.316ZM41.5294 25.2359C41.4039 25.1777 41.2564 25.0884 41.1089 24.9611C40.9612 24.8335 40.8458 24.6956 40.7623 24.5673L49.1437 19.1127C48.2973 17.812 47.1297 16.8101 45.7367 16.1641L41.5294 25.2359ZM40.7928 24.6135C40.4676 24.1257 40.457 23.7281 40.457 23.712H50.457C50.457 22.2079 50.1105 20.5623 49.1133 19.0665L40.7928 24.6135ZM40.457 23.712C40.457 23.6912 40.4575 23.6801 40.4575 23.6799C40.4575 23.6796 40.4572 23.6872 40.4561 23.7034L50.434 24.3686C50.4476 24.1641 50.457 23.9425 50.457 23.712H40.457ZM40.4578 23.6798C40.4509 23.7752 40.4444 23.8593 40.4383 23.9328L50.4038 24.7632C50.4137 24.6447 50.4232 24.5208 50.4323 24.3922L40.4578 23.6798ZM45.421 19.348H40.369V29.348H45.421V19.348ZM45.369 24.348V23.04H35.369V24.348H45.369ZM40.369 28.04H43.981V18.04H40.369V28.04ZM42.3665 18.3078L41.3465 18.6558L44.5755 28.1202L45.5955 27.7722L42.3665 18.3078ZM47.961 23.388C47.961 22.5216 47.799 21.432 47.2065 20.3457L38.4276 25.1343C38.027 24.4 37.961 23.7424 37.961 23.388H47.961ZM47.3277 20.5827C46.8576 19.5998 46.0966 18.68 45.0175 18.0325L39.8726 26.6075C39.1135 26.152 38.6005 25.5122 38.3064 24.8973L47.3277 20.5827ZM45.17 18.1278C44.0663 17.4104 42.889 17.164 41.869 17.164V27.164C41.2971 27.164 40.5038 27.0216 39.7201 26.5122L45.17 18.1278ZM41.869 17.164C40.8426 17.164 39.7096 17.4123 38.6493 18.0687L43.9128 26.5713C43.1885 27.0197 42.4475 27.164 41.869 27.164V17.164ZM38.7086 18.0325C37.6295 18.68 36.8685 19.5998 36.3984 20.5827L45.4197 24.8973C45.1256 25.5122 44.6126 26.152 43.8535 26.6075L38.7086 18.0325ZM36.4369 20.5039C35.9134 21.5509 35.777 22.581 35.777 23.388H45.777C45.777 23.683 45.7287 24.2811 45.3812 24.9761L36.4369 20.5039ZM35.777 23.388V23.796H45.777V23.388H35.777ZM35.777 23.796C35.777 24.7433 35.9693 25.8641 36.5825 26.959L45.3076 22.073C45.6968 22.7679 45.777 23.4087 45.777 23.796H35.777ZM36.5825 26.959C37.1916 28.0466 38.0987 28.899 39.189 29.4441L43.6611 20.4999C44.3354 20.837 44.9225 21.3854 45.3076 22.073L36.5825 26.959ZM39.3298 29.5118C40.357 29.9859 41.3647 30.116 42.181 30.116V20.116C42.4054 20.116 42.9091 20.1501 43.5203 20.4322L39.3298 29.5118ZM42.181 30.116C42.8665 30.116 43.8336 30.0341 44.8481 29.6114L41.002 20.3806C41.3333 20.2426 41.613 20.1798 41.7989 20.1498C41.9861 20.1196 42.1198 20.116 42.181 20.116V30.116ZM44.782 29.6384C45.4643 29.3654 46.0457 29.009 46.5252 28.6538L40.5729 20.6182C40.6204 20.583 40.7857 20.4666 41.0681 20.3536L44.782 29.6384ZM39.9986 28.1566L41.4146 29.5846L48.5155 22.5434L47.0995 21.1154L39.9986 28.1566ZM41.3041 22.6585C41.5363 22.4089 41.7875 22.2651 41.961 22.1975L45.5931 31.5145C46.7106 31.0789 47.7538 30.4071 48.626 29.4695L41.3041 22.6585ZM42.0038 22.181C42.1359 22.1309 42.2194 22.1167 42.2329 22.1146C42.2458 22.1126 42.2046 22.12 42.097 22.12V32.12C43.1749 32.12 44.37 31.9787 45.5503 31.531L42.0038 22.181ZM46.3129 27H41.3129C41.3129 29.7614 43.5515 32 46.3129 32V27ZM46.3129 20.436V15.436C43.5515 15.436 41.3129 17.6746 41.3129 20.436H46.3129ZM48.8929 20.436H53.8929C53.8929 17.6746 51.6543 15.436 48.8929 15.436V20.436ZM48.8929 22.416L44.8827 25.4023C46.17 27.131 48.4201 27.8402 50.4659 27.1621C52.5118 26.484 53.8929 24.5713 53.8929 22.416L48.8929 22.416ZM48.4729 21.852L43.8156 20.0327C43.1882 21.639 43.4327 23.4552 44.4627 24.8383L48.4729 21.852ZM49.4329 20.7L46.9184 16.3783L46.9184 16.3783L49.4329 20.7ZM51.0169 20.316H56.0169C56.0169 17.5546 53.7783 15.316 51.0169 15.316V20.316ZM51.0169 22.716L50.3561 27.6721C51.7847 27.8626 53.2261 27.4273 54.3105 26.4779C55.3949 25.5285 56.0169 24.1573 56.0169 22.716H51.0169ZM50.6929 22.68L50.2402 27.6595C50.2527 27.6606 50.2652 27.6617 50.2777 27.6627L50.6929 22.68ZM49.4089 22.992L52.5619 26.8726C52.5663 26.869 52.5707 26.8654 52.5751 26.8618L49.4089 22.992ZM49.0249 27V32C51.7863 32 54.0249 29.7614 54.0249 27H49.0249ZM51.3129 27V20.436H41.3129V27H51.3129ZM46.3129 25.436H48.8929V15.436H46.3129V25.436ZM43.8929 20.436V22.416H53.8929V20.436H43.8929ZM52.9031 19.4297L52.4831 18.8657L44.4627 24.8383L44.8827 25.4023L52.9031 19.4297ZM53.1302 23.6713C53.0537 23.867 52.9212 24.1202 52.704 24.3809C52.4836 24.6454 52.2221 24.8619 51.9474 25.0217L46.9184 16.3783C45.4218 17.249 44.3916 18.5582 43.8156 20.0327L53.1302 23.6713ZM51.9474 25.0217C51.4781 25.2948 51.0988 25.316 51.0169 25.316V15.316C49.7029 15.316 48.2677 15.5932 46.9184 16.3783L51.9474 25.0217ZM46.0169 20.316V22.716H56.0169V20.316H46.0169ZM51.6777 17.7599C51.4957 17.7356 51.3038 17.7136 51.1081 17.6973L50.2777 27.6627C50.2746 27.6625 50.2797 27.6629 50.2937 27.6644C50.3077 27.666 50.3282 27.6684 50.3561 27.6721L51.6777 17.7599ZM51.1456 17.7005C50.8948 17.6777 50.6512 17.668 50.4169 17.668V27.668C50.3746 27.668 50.3149 27.6663 50.2402 27.6595L51.1456 17.7005ZM50.4169 17.668C49.0903 17.668 47.5668 18.0389 46.2427 19.1222L52.5751 26.8618C51.779 27.5131 50.9275 27.668 50.4169 27.668V17.668ZM46.2559 19.1114C44.2922 20.7069 44.0249 22.9275 44.0249 24.084H54.0249C54.0249 24.2005 54.0135 25.6931 52.5619 26.8726L46.2559 19.1114ZM44.0249 24.084V27H54.0249V24.084H44.0249ZM49.0249 22H46.3129V32H49.0249V22ZM53.0173 26.472L49.729 30.2386C49.7404 30.2485 49.7519 30.2584 49.7634 30.2683L53.0173 26.472ZM52.2613 18.96V13.96C49.4999 13.96 47.2613 16.1986 47.2613 18.96H52.2613ZM54.9733 18.96H59.9733C59.9733 16.1986 57.7348 13.96 54.9733 13.96V18.96ZM55.1293 24.9L51.4654 28.3023C51.5073 28.3475 51.5502 28.3919 51.5938 28.4355L55.1293 24.9ZM56.1493 24.888L60.8775 23.2618C60.3704 21.7874 59.2045 20.634 57.7248 20.1427C56.2451 19.6514 54.6209 19.8785 53.3326 20.7569L56.1493 24.888ZM56.7973 26.772L59.2959 31.1029C61.3692 29.9068 62.304 27.4092 61.5255 25.1458L56.7973 26.772ZM56.0413 27.036L55.1119 22.1231C55.1036 22.1247 55.0953 22.1263 55.087 22.1279L56.0413 27.036ZM51.3613 22.776H46.3613C46.3613 25.5374 48.5999 27.776 51.3613 27.776V22.776ZM51.3613 20.796V15.796C48.5999 15.796 46.3613 18.0346 46.3613 20.796H51.3613ZM56.3173 20.796H61.3173C61.3173 18.0346 59.0788 15.796 56.3173 15.796V20.796ZM56.3173 22.776V27.776C59.0788 27.776 61.3173 25.5374 61.3173 22.776H56.3173ZM55.1293 22.12C54.9859 22.12 55.5871 22.0892 56.2713 22.6757L49.7634 30.2683C51.4556 31.7188 53.4648 32.12 55.1293 32.12V22.12ZM56.3056 22.7054C56.7225 23.0693 56.989 23.501 57.132 23.8824C57.1984 24.0596 57.2304 24.2044 57.2459 24.301C57.2612 24.3968 57.2613 24.4517 57.2613 24.456H47.2613C47.2613 26.2709 47.7917 28.5473 49.729 30.2386L56.3056 22.7054ZM57.2613 24.456V18.96H47.2613V24.456H57.2613ZM52.2613 23.96H54.9733V13.96H52.2613V23.96ZM49.9733 18.96V24.432H59.9733V18.96H49.9733ZM49.9733 24.432C49.9733 25.4936 50.2642 27.0087 51.4654 28.3023L58.7933 21.4977C59.7865 22.5673 59.9733 23.7704 59.9733 24.432H49.9733ZM51.5938 28.4355C52.6541 29.4959 54.0664 30.068 55.5373 30.068V20.068C56.0527 20.068 56.632 20.1609 57.2191 20.4026C57.8072 20.6448 58.2903 20.99 58.6649 21.3645L51.5938 28.4355ZM55.5373 30.068C56.6804 30.068 57.8855 29.7558 58.966 29.0191L53.3326 20.7569C54.0611 20.2602 54.8582 20.068 55.5373 20.068V30.068ZM51.4212 26.5142L52.0692 28.3982L61.5255 25.1458L60.8775 23.2618L51.4212 26.5142ZM54.2987 22.4411C54.6832 22.2192 54.9903 22.1461 55.1119 22.1231L56.9708 31.9489C57.6843 31.8139 58.4954 31.5648 59.2959 31.1029L54.2987 22.4411ZM55.087 22.1279C55.1403 22.1176 55.1576 22.12 55.1293 22.12V32.12C55.7411 32.12 56.3664 32.0664 56.9957 31.9441L55.087 22.1279ZM56.3613 22.776V20.796H46.3613V22.776H56.3613ZM51.3613 25.796H56.3173V15.796H51.3613V25.796ZM51.3173 20.796V22.776H61.3173V20.796H51.3173ZM56.3173 17.776H51.3613V27.776H56.3173V17.776ZM58.3929 26.94L57.3158 31.8226L58.3929 26.94ZM57.0729 26.472L52.4566 24.5511C51.4882 26.8784 52.4036 29.5626 54.5922 30.8132L57.0729 26.472ZM57.8169 24.684L60.3568 20.3772C59.1108 19.6424 57.6077 19.4832 56.2354 19.9407C54.8631 20.3982 53.7563 21.4276 53.2006 22.7631L57.8169 24.684ZM58.8969 25.116L57.6618 29.9611C57.6693 29.963 57.6767 29.9648 57.6842 29.9667L58.8969 25.116ZM60.7689 25.188L58.6544 20.6571C58.6136 20.6761 58.5731 20.6957 58.5328 20.7159L60.7689 25.188ZM60.7449 24.756L59.0808 29.471C59.1644 29.5005 59.2489 29.5278 59.334 29.5528L60.7449 24.756ZM59.4609 24.564L58.7118 29.5076C58.7666 29.5159 58.8216 29.5233 58.8767 29.5298L59.4609 24.564ZM58.6569 24.396L57.3774 29.2295L57.3774 29.2295L58.6569 24.396ZM57.9129 24.072L55.2091 28.2779L55.2091 28.2779L57.9129 24.072ZM57.3729 23.496L52.9888 25.9002C53 25.9205 53.0113 25.9408 53.0227 25.9611L57.3729 23.496ZM57.5409 21.432L53.5637 18.4018C53.5483 18.422 53.5331 18.4423 53.518 18.4627L57.5409 21.432ZM58.6689 20.628L60.5387 25.2652C60.5513 25.2601 60.5638 25.255 60.5763 25.2499L58.6689 20.628ZM61.9689 20.448L61.0672 25.366L61.0672 25.366L61.9689 20.448ZM63.2049 20.856L67.8212 22.7769C68.8101 20.4003 67.833 17.6612 65.5631 16.4471L63.2049 20.856ZM62.4609 22.644L60.0593 27.0295C61.3037 27.7109 62.779 27.8316 64.1176 27.3615C65.4562 26.8914 66.5321 25.8748 67.0772 24.5649L62.4609 22.644ZM61.4649 22.272L60.3673 27.15C60.4138 27.1605 60.4605 27.1703 60.5073 27.1795L61.4649 22.272ZM59.8569 22.26L57.6208 17.7879C57.5816 17.8075 57.5426 17.8276 57.5039 17.8482L59.8569 22.26ZM59.8809 22.692L61.545 17.977L61.545 17.977L59.8809 22.692ZM60.4209 22.8L60.9535 17.8285L60.9535 17.8285L60.4209 22.8ZM61.1529 22.896L60.4038 27.8396C60.4586 27.8479 60.5136 27.8553 60.5687 27.8618L61.1529 22.896ZM61.9569 23.064L60.5068 27.8491C60.5634 27.8663 60.6203 27.8824 60.6774 27.8975L61.9569 23.064ZM62.7009 23.388L65.4046 19.1821L65.4046 19.1821L62.7009 23.388ZM63.2409 23.976L58.8568 26.3802C58.868 26.4005 58.8793 26.4208 58.8908 26.4411L63.2409 23.976ZM63.0729 26.004L67.0957 28.9733C67.1068 28.9582 67.1178 28.9432 67.1287 28.928L63.0729 26.004ZM61.9449 26.82L63.7891 31.4675C63.8102 31.4591 63.8313 31.4505 63.8523 31.4419L61.9449 26.82ZM60.0489 22.12C59.8492 22.12 59.6583 22.0989 59.4699 22.0574L57.3158 31.8226C58.2154 32.0211 59.1286 32.12 60.0489 32.12V22.12ZM59.4699 22.0574C59.362 22.0336 59.3186 22.0179 59.3257 22.0204C59.3306 22.0222 59.3531 22.0303 59.3903 22.047C59.4274 22.0636 59.4833 22.0906 59.5536 22.1308L54.5922 30.8132C55.5121 31.3389 56.476 31.6374 57.3158 31.8226L59.4699 22.0574ZM61.6892 28.3929L62.4332 26.6049L53.2006 22.7631L52.4566 24.5511L61.6892 28.3929ZM55.2769 28.9908C56.056 29.4503 56.8681 29.7587 57.6618 29.9611L60.1319 20.2709C60.1096 20.2653 60.2017 20.2857 60.3568 20.3772L55.2769 28.9908ZM57.6842 29.9667C58.46 30.1607 59.2718 30.272 60.1089 30.272V20.272C60.1344 20.272 60.1487 20.2737 60.1502 20.2739C60.1514 20.2741 60.1382 20.2725 60.1095 20.2653L57.6842 29.9667ZM60.1089 30.272C60.3942 30.272 60.7585 30.261 61.1511 30.211C61.4584 30.1719 62.199 30.0631 63.0049 29.6601L58.5328 20.7159C58.9199 20.5223 59.2484 20.4255 59.4382 20.3775C59.6399 20.3265 59.7981 20.3025 59.8886 20.291C60.0613 20.269 60.1515 20.272 60.1089 20.272V30.272ZM62.8833 29.7189C63.9825 29.206 65.9489 27.7337 65.9489 24.96H55.9489C55.9489 23.8732 56.3193 22.8269 56.9794 21.9908C57.5769 21.234 58.2539 20.844 58.6544 20.6571L62.8833 29.7189ZM65.9489 24.96C65.9489 23.5833 65.4032 22.2713 64.4334 21.3015C63.5931 20.4612 62.6733 20.1114 62.1557 19.9592L59.334 29.5528C58.9524 29.4406 58.1346 29.1448 57.3623 28.3725C56.4605 27.4707 55.9489 26.2407 55.9489 24.96H65.9489ZM62.409 20.041C61.7627 19.813 61.1576 19.7215 60.7375 19.6765L59.6722 29.6195C59.6662 29.6189 59.6142 29.6133 59.5273 29.5959C59.4445 29.5794 59.2864 29.5435 59.0808 29.471L62.409 20.041ZM60.7375 19.6765C60.5339 19.6546 60.3034 19.6286 60.0451 19.5982L58.8767 29.5298C59.1623 29.5634 59.4278 29.5934 59.6722 29.6195L60.7375 19.6765ZM60.2099 19.6204C60.1338 19.6089 60.0429 19.5907 59.9363 19.5625L57.3774 29.2295C57.8148 29.3453 58.2599 29.4391 58.7118 29.5076L60.2099 19.6204ZM59.9363 19.5625C60.1403 19.6165 60.3773 19.7122 60.6166 19.8661L55.2091 28.2779C55.8965 28.7198 56.6295 29.0315 57.3774 29.2295L59.9363 19.5625ZM60.6166 19.8661C61.0993 20.1764 61.4743 20.592 61.723 21.0309L53.0227 25.9611C53.5435 26.88 54.2784 27.6796 55.2091 28.2779L60.6166 19.8661ZM61.7569 21.0918C62.1363 21.7837 62.1689 22.3623 62.1689 22.56H52.1689C52.1689 23.5097 52.3374 24.7123 52.9888 25.9002L61.7569 21.0918ZM62.1689 22.56C62.1689 22.8569 62.1232 23.1895 62.0103 23.532C61.8974 23.8742 61.7371 24.1664 61.5637 24.4013L53.518 18.4627C52.638 19.655 52.1689 21.0708 52.1689 22.56H62.1689ZM61.518 24.4622C61.1017 25.0086 60.6579 25.2171 60.5387 25.2652L56.799 15.9908C55.6878 16.4389 54.492 17.1834 53.5637 18.4018L61.518 24.4622ZM60.5763 25.2499C60.4329 25.3091 60.3445 25.3242 60.339 25.3251C60.3353 25.3257 60.3485 25.3233 60.381 25.3209C60.4134 25.3184 60.4621 25.316 60.5289 25.316V15.316C59.3539 15.316 58.0419 15.4777 56.7614 16.0061L60.5763 25.2499ZM60.5289 25.316C60.7014 25.316 60.8797 25.3317 61.0672 25.366L62.8705 15.53C62.098 15.3883 61.3163 15.316 60.5289 15.316V25.316ZM61.0672 25.366C61.1091 25.3737 61.1072 25.3761 61.0706 25.364C61.0336 25.3518 60.9544 25.3226 60.8466 25.2649L65.5631 16.4471C64.6651 15.9667 63.7375 15.6889 62.8705 15.53L61.0672 25.366ZM58.5886 18.9351L57.8446 20.7231L67.0772 24.5649L67.8212 22.7769L58.5886 18.9351ZM64.8624 18.2585C64.1397 17.8627 63.3235 17.5404 62.4224 17.3645L60.5073 27.1795C60.2622 27.1316 60.1101 27.0573 60.0593 27.0295L64.8624 18.2585ZM62.5624 17.394C61.9419 17.2543 61.2706 17.164 60.5649 17.164V27.164C60.4191 27.164 60.3479 27.1457 60.3673 27.15L62.5624 17.394ZM60.5649 17.164C60.2576 17.164 59.8726 17.1771 59.458 17.2333C59.1069 17.2809 58.3949 17.4008 57.6208 17.7879L62.0929 26.7321C61.7394 26.9089 61.4373 27.0028 61.2482 27.0527C61.0514 27.1046 60.8955 27.1299 60.8017 27.1427C60.6232 27.1669 60.5281 27.164 60.5649 27.164V17.164ZM57.5039 17.8482C56.9449 18.1464 54.6769 19.5084 54.6769 22.476H64.6769C64.6769 23.8004 64.1469 24.8622 63.563 25.5629C63.0378 26.1932 62.4841 26.5255 62.2098 26.6718L57.5039 17.8482ZM54.6769 22.476C54.6769 23.8447 55.2129 25.1035 56.0928 26.0351C56.8643 26.852 57.7165 27.2304 58.2168 27.407L61.545 17.977C61.9092 18.1056 62.6594 18.424 63.3629 19.1689C64.1748 20.0285 64.6769 21.2033 64.6769 22.476H54.6769ZM58.2168 27.407C58.863 27.635 59.4681 27.7265 59.8882 27.7715L60.9535 17.8285C60.9595 17.8291 61.0115 17.8347 61.0984 17.8521C61.1812 17.8686 61.3393 17.9045 61.545 17.977L58.2168 27.407ZM59.8882 27.7715C60.0281 27.7865 60.199 27.8085 60.4038 27.8396L61.9019 17.9524C61.5787 17.9035 61.2616 17.8615 60.9535 17.8285L59.8882 27.7715ZM60.5687 27.8618C60.5452 27.859 60.5235 27.8542 60.5068 27.8491L63.4069 18.2789C62.8622 18.1138 62.3046 17.997 61.7371 17.9302L60.5687 27.8618ZM60.6774 27.8975C60.4735 27.8435 60.2365 27.7478 59.9971 27.5939L65.4046 19.1821C64.7173 18.7402 63.9843 18.4285 63.2363 18.2305L60.6774 27.8975ZM59.9971 27.5939C59.4758 27.2588 59.0961 26.8166 58.8568 26.3802L67.6249 21.5718C67.1136 20.6394 66.3739 19.8052 65.4046 19.1821L59.9971 27.5939ZM58.8908 26.4411C58.4738 25.7052 58.4449 25.0876 58.4449 24.9H68.4449C68.4449 23.9604 68.2799 22.7268 67.591 21.5109L58.8908 26.4411ZM58.4449 24.9C58.4449 24.1552 58.7042 23.5139 59.017 23.08L67.1287 28.928C67.9375 27.8061 68.4449 26.4288 68.4449 24.9H58.4449ZM59.05 23.0347C59.485 22.4454 59.9506 22.234 60.0374 22.1981L63.8523 31.4419C64.9471 30.99 66.1648 30.2346 67.0957 28.9733L59.05 23.0347ZM60.1006 22.1725C60.1745 22.1432 60.2312 22.1262 60.2662 22.117C60.3011 22.1078 60.3173 22.1055 60.3114 22.1064C60.3056 22.1074 60.2815 22.1109 60.2366 22.1141C60.1918 22.1173 60.1297 22.12 60.0489 22.12V32.12C61.2054 32.12 62.5134 31.9737 63.7891 31.4675L60.1006 22.1725Z" fill="#F580FF"/>
</mask>
<g mask="url(#mask0_3_6)">
<rect x="-1.18881" y="-69" width="88" height="86" transform="rotate(45 -1.18881 -69)" fill="#F580FF"/>
<rect x="-1.18881" y="-69" width="88" height="86" transform="rotate(45 -1.18881 -69)" fill="#F580FF"/>
<rect width="70.8316" height="105.477" transform="matrix(-0.707107 -0.707107 -0.707107 0.707107 124.894 29.5385)" fill="#F580FF"/>
<rect width="70.8316" height="105.477" transform="matrix(-0.707107 -0.707107 -0.707107 0.707107 124.894 29.5385)" fill="#6587FF"/>
</g>
</svg>
